<?xml version="1.0" encoding="UTF-8" standalone="no"?><!DOCTYPE svg PUBLIC "-//W3C//DTD SVG 1.1//EN" "http://www.w3.org/Graphics/SVG/1.1/DTD/svg11.dtd"><svg xmlns="http://www.w3.org/2000/svg" xmlns:xlink="http://www.w3.org/1999/xlink" version="1.1" width="376" height="145" viewBox="0 0 375 145">
<desc>Created with SVGMaker Editor 2.2.1</desc>
<defs>
</defs>
<path transform="translate(0,0)" style="fill: rgb(253,253,253)" stroke-linecap="round" d="M119.0012 11.8562C136.4772 11.8562 153.9573 11.8562 171.9633 11.8562 172.3918 12.6743 172.8202 13.4924 173.2644 14.3339 173.6189 14.8365 173.6189 14.8365 173.9812 15.3546 177.0004 19.7879 176.3537 25.2887 176.2797 30.4076 176.2602 31.8374 176.2563 33.271 176.2525 34.7046 176.2485 37.2602 176.229 39.8158 176.2018 42.3713 176.1784 44.849 176.1589 47.3227 176.1472 49.8004 176.1472 50.0342 176.1472 50.0342 176.1434 50.2679 176.1434 51.0354 176.1395 51.8067 176.1356 52.5781 176.1082 58.9359 176.0576 65.2937 175.9953 71.6554 175.6252 71.4684 175.6018 71.1995 175.4733 70.8255 175.4422 70.7243 175.407 70.6229 175.3758 70.5177 175.3369 70.4087 175.3018 70.3035 175.2668 70.1944 175.1461 69.8321 175.0253 69.4738 174.9084 69.1114 174.8227 68.8543 174.737 68.5972 174.6474 68.34 174.4136 67.6388 174.1838 66.9376 173.9501 66.2364 173.7085 65.504 173.4631 64.7716 173.2177 64.0392 172.8086 62.8082 172.3996 61.5771 171.9905 60.35 171.5192 58.9241 171.0477 57.4983 170.5724 56.0764 170.1167 54.709 169.6609 53.3416 169.205 51.9742 169.0142 51.3898 168.8194 50.8094 168.6246 50.2251 168.3947 49.5394 168.1688 48.8538 167.9429 48.1681 167.8572 47.9149 167.7754 47.6617 167.6896 47.4085 167.5766 47.0656 167.4598 46.7229 167.3469 46.38 167.3157 46.2787 167.2806 46.1774 167.2455 46.0722 167.117 45.6827 167.0196 45.3632 167.0196 44.9464 166.9456 44.923 166.8754 44.9035 166.8014 44.8801 166.1041 44.6503 165.434 44.3932 164.764 44.0932 164.6627 44.0465 164.5614 44.0036 164.4562 43.9568 164.1212 43.8088 163.7901 43.6607 163.455 43.5127 163.2173 43.4114 162.9837 43.3063 162.746 43.2011 162.1227 42.9245 161.5033 42.6518 160.8839 42.3752 160.2917 42.1142 159.6957 41.8492 159.1035 41.5883 158.4062 41.2805 157.7089 40.9727 157.0115 40.6611 155.4259 39.9599 153.8365 39.2626 152.247 38.5652 150.307 37.712 148.3708 36.855 146.4308 35.998 144.7284 35.2421 143.022 34.4942 141.3196 33.7423 139.3796 32.8931 137.4395 32.036 135.5034 31.1789 133.4113 30.2517 131.3194 29.3324 129.2235 28.413 128.9235 28.2806 128.6235 28.1481 128.3197 28.0156 127.9067 27.8326 127.4899 27.6495 127.0731 27.4703 126.8588 27.3806 126.6485 27.2911 126.438 27.1975 126.3446 27.1586 126.2471 27.1157 126.1498 27.0767 125.3083 26.7066 124.7045 26.2002 124.0772 25.538 123.9799 25.4483 123.8863 25.3588 123.789 25.2691 121.7905 23.3992 120.314 20.8475 119.5231 18.2414 119.4959 18.1517 119.4687 18.0621 119.4375 17.9725 118.8375 15.9078 119.0012 14.0691 119.0012 11.8562ZM119.0012 11.8562"/>
<path transform="translate(0,0)" style="fill: rgb(253,253,253)" stroke-linecap="round" d="M198.3831 11.8562C215.8592 11.8562 233.3353 11.8562 251.3452 11.8562 252.0503 15.3975 250.9049 19.3867 248.961 22.3591 248.4156 23.1616 247.8039 23.9213 247.1806 24.6654 247.1222 24.7355 247.0638 24.8056 247.0015 24.8757 246.8066 25.1017 246.6041 25.3198 246.3976 25.538 246.3159 25.6276 246.2301 25.7172 246.1444 25.8146 245.151 26.808 243.9745 27.2676 242.7007 27.8014 242.463 27.8988 242.2253 28 241.9877 28.1014 241.4968 28.3156 241.0021 28.526 240.5073 28.7363 239.436 29.1921 238.3764 29.6635 237.3128 30.1349 236.7285 30.396 236.1441 30.6569 235.5598 30.9141 235.4429 30.9647 235.326 31.0154 235.2091 31.0698 233.8613 31.6659 232.5172 32.2541 231.1694 32.8463 229.4552 33.5982 227.745 34.3539 226.0348 35.1097 224.1025 35.9668 222.1702 36.82 220.238 37.6653 218.407 38.4717 216.5799 39.2781 214.7528 40.0884 212.7076 40.9923 210.6584 41.8999 208.6055 42.796 208.4028 42.8817 208.2003 42.9751 207.9977 43.0686 207.3822 43.3491 206.7666 43.5867 206.1239 43.7933 204.2734 44.4205 204.2734 44.4205 202.9605 45.784 202.5553 46.641 202.2982 47.5409 202.0411 48.4525 201.936 48.7876 201.8269 49.1226 201.7178 49.4575 201.4646 50.2484 201.223 51.0393 200.9893 51.8379 200.7283 52.7222 200.4517 53.5987 200.1712 54.4792 199.7154 55.9244 199.2713 57.3697 198.8311 58.819 198.3208 60.4942 197.7948 62.1653 197.2494 63.8288 197.1949 64.0003 197.1949 64.0003 197.1365 64.1756 196.5715 65.8974 195.995 67.6194 195.4068 69.3334 195.3249 69.5672 195.247 69.7971 195.1652 70.0309 194.9821 70.5723 194.7952 71.1138 194.6082 71.6554 194.5653 71.6554 194.5225 71.6554 194.4796 71.6554 194.3899 65.165 194.3198 58.6787 194.2809 52.1885 194.2732 51.4171 194.2693 50.6458 194.2653 49.8744 194.2614 49.7225 194.2614 49.5667 194.2614 49.4109 194.2458 46.9449 194.2147 44.4789 194.1757 42.0129 194.1406 39.4729 194.1173 36.933 194.1095 34.3929 194.1056 32.8347 194.0901 31.2725 194.0588 29.7142 194.0355 28.635 194.0316 27.5559 194.0355 26.4769 194.0394 25.76 194.0316 25.0432 194.0004 24.3264 193.8953 19.2309 195.882 16.8623 198.3831 11.8562ZM198.3831 11.8562"/>
<path transform="translate(0,0)" style="fill: rgb(253,253,253)" stroke-linecap="round" d="M180.9443 0.0029C183.7337 0.0029 186.5268 0.0029 189.4019 0.0029 189.6317 0.5834 189.7915 1.1405 189.9317 1.7443 189.9668 1.908 189.9668 1.908 190.0057 2.0715 190.0915 2.43 190.1733 2.7845 190.255 3.139 190.3135 3.3883 190.3719 3.6337 190.4304 3.883 190.5823 4.5337 190.7342 5.1842 190.8861 5.831 191.042 6.4971 191.1978 7.1594 191.3537 7.8216 191.6575 9.1266 191.9614 10.4278 192.2652 11.729 194.1975 11.7913 194.1975 11.7913 196.1687 11.8576 195.8765 12.7302 195.8765 12.7302 195.561 13.1587 191.4744 18.8893 191.9614 25.064 192.1094 31.8191 192.1444 33.4748 192.1562 35.1305 192.164 36.7862 192.1795 39.7664 192.2107 42.7427 192.2535 45.723 192.2535 45.8125 192.2535 45.8982 192.2574 45.9917 192.2731 47.2423 192.2925 48.4928 192.3081 49.7472 192.386 55.209 192.4561 60.6668 192.4834 66.1286 192.4873 66.6389 192.4912 67.1493 192.4951 67.6557 192.5574 78.6143 191.7277 89.0821 189.585 99.8265 189.0902 102.3119 188.7669 104.735 188.7552 107.2711 188.7513 107.9334 188.7241 108.5957 188.6968 109.258 188.6734 109.8618 188.6539 110.4695 188.6344 111.0733 188.4513 117.0026 188.4513 117.0026 188.2293 119.8582 188.2254 119.9477 188.2176 120.0413 188.2098 120.1347 187.9449 123.5006 187.3995 126.8119 186.8152 130.135 186.2971 133.0568 186.2971 133.0568 186.0087 136.0058 186.001 136.1656 185.9893 136.3292 185.9815 136.4928 185.9308 137.3343 185.8841 138.1758 185.8412 139.0172 185.8256 139.3327 185.8062 139.6483 185.7906 139.9599 185.7711 140.3651 185.7477 140.7664 185.7322 141.1677 185.6153 143.5167 185.6153 143.5167 185.366 144.4829 185.2802 144.5258 185.1945 144.5686 185.1089 144.6114 184.8868 143.7155 184.7777 142.8506 184.7153 141.9312 184.7076 141.7832 184.6959 141.6312 184.6842 141.4754 184.618 140.5599 184.5751 139.6483 184.544 138.729 184.4388 135.6942 184.0726 132.7724 183.5349 129.7883 183.3441 128.717 183.1687 127.6457 182.9935 126.5744 182.9701 126.4263 182.9701 126.4263 182.9428 126.2744 182.1559 121.432 181.9533 116.5546 181.7897 111.6577 181.7624 110.8708 181.7351 110.0799 181.7079 109.293 181.6962 108.9852 181.6845 108.6814 181.6768 108.3737 181.6572 107.8593 181.6378 107.3451 181.6104 106.8309 181.5988 106.5622 181.5871 106.2933 181.5754 106.0245 181.4741 103.7573 181.2015 101.6029 180.73 99.3784 178.5095 88.8016 177.9369 78.3806 178.0109 67.5856 178.0148 67.0753 178.0187 66.5649 178.0226 66.0546 178.0537 60.2889 178.1317 54.5233 178.2173 48.7615 178.2329 47.8617 178.2446 46.9617 178.2602 46.0657 178.2602 45.9762 178.2602 45.8865 178.2641 45.797 178.2952 43.7595 178.3187 41.722 178.3342 39.6846 178.3381 39.595 178.3381 39.5093 178.3381 39.4235 178.3459 38.4769 178.3498 37.5303 178.3576 36.5836 178.3653 34.9279 178.3849 33.2762 178.4238 31.6243 178.5874 24.3667 178.6342 18.3206 174.3217 12.2082 174.1775 11.99 174.1775 11.99 174.1775 11.8576 175.5099 11.8576 176.8383 11.8576 178.2096 11.8576 178.2952 11.3862 178.381 10.9109 178.4705 10.4239 178.5484 10.0655 178.6303 9.7072 178.7121 9.3487 178.7354 9.2513 178.7589 9.154 178.7822 9.0526 178.8562 8.7371 178.9302 8.4216 179.0043 8.106 179.0549 7.8839 179.1094 7.6619 179.1601 7.4398 179.2692 6.9763 179.3744 6.5166 179.4834 6.053 179.6237 5.4609 179.7601 4.8687 179.9003 4.2766 180.0055 3.8168 180.1145 3.3611 180.2197 2.9053 180.2704 2.6871 180.321 2.469 180.3756 2.2508 180.4457 1.943 180.5158 1.6391 180.5859 1.3352 180.6093 1.2457 180.6288 1.1561 180.6521 1.0626 180.7378 0.7042 180.8275 0.3536 180.9443 0.0029ZM184.0648 77.3872C182.9467 79.0312 182.6195 81.318 182.3741 83.2503 182.3545 83.3944 182.3545 83.3944 182.339 83.5385 182.191 84.8591 182.2143 86.1915 182.2104 87.516 182.2104 87.6485 182.2104 87.7809 182.2104 87.9133 182.2143 91.2365 182.2533 95.5178 184.4582 98.2331 184.9569 98.5642 185.1673 98.5915 185.7594 98.4941 187.5554 97.154 187.8397 94.1504 188.1513 92.0818 188.3501 90.6131 188.3929 89.1444 188.3929 87.664 188.3929 87.5628 188.3929 87.4576 188.3929 87.3524 188.3929 81.7464 188.3929 81.7464 186.0204 76.8652 185.179 76.3081 184.6647 76.7055 184.0648 77.3872ZM184.0648 77.3872"/>
<path transform="translate(0,0)" style="fill: rgb(253,253,253)" stroke-linecap="round" d="M200.3337 91.7206C200.5479 92.3596 200.4933 93.0179 200.4972 93.6919 200.4972 93.8321 200.5012 93.9763 200.5051 94.1243 200.509 95.2696 200.3453 96.2046 199.6987 97.1669 199.6168 97.2876 199.5389 97.4084 199.4533 97.537 199.4104 97.6032 199.3636 97.6733 199.3169 97.7434 199.0754 98.1018 198.8416 98.4681 198.6078 98.8304 198.23 99.4147 197.8482 99.9951 197.4703 100.5795 197.3924 100.6963 197.3183 100.8132 197.2366 100.934 196.7535 101.6781 196.2705 102.4183 195.7874 103.1585 195.4563 103.661 195.129 104.1635 194.8017 104.6661 194.3771 105.3167 193.9524 105.9634 193.5318 106.61 193.3603 106.8711 193.1889 107.1321 193.0215 107.3931 192.7799 107.7632 192.5384 108.1294 192.2968 108.4995 192.2228 108.6124 192.1527 108.7215 192.0786 108.8384 191.7046 109.4032 191.3345 109.8902 190.832 110.3499 190.832 109.6993 190.832 109.0448 190.832 108.3943 190.8359 108.2306 190.8359 108.0632 190.8359 107.8956 190.8827 103.1896 191.7553 98.5615 192.5267 93.9334 193.485 93.6451 194.4472 93.3569 195.4056 93.0686 195.8536 92.9361 196.2977 92.7998 196.7457 92.6674 197.256 92.5115 197.7703 92.3596 198.2806 92.2037 198.4403 92.1569 198.604 92.1064 198.7676 92.0557 198.9896 91.9895 198.9896 91.9895 199.2156 91.9233 199.348 91.8843 199.4805 91.8453 199.6129 91.8025 199.9441 91.7206 199.9441 91.7206 200.3337 91.7206ZM200.3337 91.7206"/>
<path transform="translate(0,0)" style="fill: rgb(253,253,253)" stroke-linecap="round" d="M170.0126 91.7206C170.8463 91.8064 171.6215 92.0402 172.4201 92.2856 172.5643 92.3284 172.7046 92.3713 172.8526 92.4141 173.3045 92.5505 173.7563 92.6907 174.2083 92.827 174.5161 92.9206 174.82 93.014 175.1276 93.1037 175.6847 93.275 176.2457 93.4426 176.8028 93.614 176.9158 93.6451 177.0249 93.6802 177.1418 93.7152 177.3677 93.7854 177.5936 93.8594 177.8196 93.9334 178.03 95.1723 178.2364 96.415 178.4391 97.6539 178.5403 98.2537 178.6416 98.8576 178.7428 99.4576 179.3623 103.0845 179.5688 106.6723 179.5104 110.3499 179.0273 109.9097 178.7039 109.4149 178.3611 108.8657 178.2325 108.6669 178.104 108.4644 177.9754 108.2657 177.9092 108.1605 177.843 108.0554 177.7729 107.9463 177.4028 107.3698 177.0288 106.8048 176.6548 106.236 176.5379 106.0568 176.5379 106.0568 176.4171 105.8738 176.1756 105.5076 175.9301 105.1375 175.6886 104.7713 174.6757 103.2363 173.6668 101.7015 172.6656 100.1588 172.3033 99.5978 171.9409 99.0407 171.5747 98.4836 171.5046 98.3784 171.4345 98.2733 171.3644 98.1642 171.2281 97.9616 171.0917 97.7551 170.9554 97.5486 169.7477 95.7098 169.7282 93.875 170.0126 91.7206ZM170.0126 91.7206"/>
</svg>