<?xml version="1.0" encoding="UTF-8"?>
<svg version="1.1" xmlns="http://www.w3.org/2000/svg" width="500" height="500">
<path d="M0 0 C1.32 0 2.64 0 4 0 C4.6708712 1.6232687 5.33657029 3.24867578 6 4.875 C6.37125 5.77992188 6.7425 6.68484375 7.125 7.6171875 C8 10 8 10 8 12 C8.53012695 11.83250244 9.06025391 11.66500488 9.60644531 11.49243164 C12.5839916 10.87985403 15.25919894 10.9921358 18.296875 11.12109375 C20.10478516 11.19360352 20.10478516 11.19360352 21.94921875 11.26757812 C23.83060547 11.35168945 23.83060547 11.35168945 25.75 11.4375 C27.65458984 11.51581055 27.65458984 11.51581055 29.59765625 11.59570312 C32.73202407 11.72531984 35.86606874 11.86028471 39 12 C39.495 14.475 39.495 14.475 40 17 C34.55602015 22.13365527 28.81523948 24.27939902 21.8125 26.69726562 C17.36561431 28.39816433 14.726916 29.64492277 12.55078125 34.0078125 C12.01513251 35.33111675 11.49570341 36.66122001 11 38 C10.27083333 39.35416667 9.54166667 40.70833333 8.8125 42.0625 C6.95829857 45.73454597 6.34047533 48.91429606 6 53 C7.32 53 8.64 53 10 53 C9.125 58.75 9.125 58.75 8 61 C7.34 61 6.68 61 6 61 C5.89042969 61.91523438 5.78085938 62.83046875 5.66796875 63.7734375 C5.50941406 64.96195312 5.35085937 66.15046875 5.1875 67.375 C5.03667969 68.55835938 4.88585937 69.74171875 4.73046875 70.9609375 C4 74 4 74 1 76 C-0.95151627 74.04848373 -0.70968749 70.54831255 -1.0625 67.9375 C-1.23910156 66.64714844 -1.41570312 65.35679687 -1.59765625 64.02734375 C-1.73042969 63.02832031 -1.86320312 62.02929688 -2 61 C-2.66 61 -3.32 61 -4 61 C-5.38111722 58.7252187 -6.05694702 57.49828639 -5.75 54.8125 C-5 53 -5 53 -3 52 C-2.60622676 47.7813653 -2.60622676 47.7813653 -4.4140625 44.13671875 C-6.25753167 41.65302999 -6.77383942 39.53959045 -7.5625 36.5625 C-9.11619489 32.11999599 -10.39427061 30.18117513 -14.625 28.0625 C-16.40020209 27.33353962 -18.19304947 26.64626271 -20 26 C-31.72473724 21.48657004 -31.72473724 21.48657004 -35 18 C-35.875 15.3125 -35.875 15.3125 -36 13 C-33.4675428 10.4675428 -26.73025148 11.51004189 -23.3125 11.375 C-22.22259766 11.3234375 -21.13269531 11.271875 -20.00976562 11.21875 C-18.42131836 11.15300781 -18.42131836 11.15300781 -16.80078125 11.0859375 C-15.83309814 11.0451709 -14.86541504 11.0044043 -13.8684082 10.96240234 C-11 11 -11 11 -5 12 C-3.35 8.04 -1.7 4.08 0 0 Z M1 22 C1 25.63 1 29.26 1 33 C1.33 33 1.66 33 2 33 C2 29.37 2 25.74 2 22 C1.67 22 1.34 22 1 22 Z " fill="#F7F7F7" transform="translate(248,212)"/>
</svg>
