<?xml version="1.0" encoding="UTF-8" standalone="no"?><!DOCTYPE svg PUBLIC "-//W3C//DTD SVG 1.1//EN" "http://www.w3.org/Graphics/SVG/1.1/DTD/svg11.dtd"><svg xmlns="http://www.w3.org/2000/svg" xmlns:xlink="http://www.w3.org/1999/xlink" version="1.1" width="376" height="145" viewBox="0 0 375 145">
<desc>Created with SVGMaker Editor 2.2.1</desc>
<defs>
</defs>
<path transform="translate(0,0)" style="fill: rgb(253,253,253)" stroke-linecap="round" d="M81.0814 74.8985C81.28 74.8985 81.28 74.8985 81.4827 74.8985 81.6268 74.8985 81.7709 74.8985 81.919 74.8985 82.0709 74.8985 82.2267 74.8985 82.3825 74.8985 82.8851 74.8985 83.3915 74.8985 83.894 74.9024 84.2447 74.9024 84.5913 74.9024 84.942 74.9024 85.7679 74.9024 86.5938 74.9024 87.4197 74.9024 88.3586 74.9063 89.3013 74.9063 90.2402 74.9063 92.1763 74.9063 94.1086 74.9102 96.0447 74.9141 96.0447 76.6749 96.0447 78.4396 96.0447 80.2551 95.6279 80.2551 95.215 80.259 94.7864 80.259 93.4191 80.2668 92.0517 80.2745 90.6804 80.2862 89.8506 80.2901 89.0208 80.2979 88.191 80.3018 87.3924 80.3018 86.5898 80.3095 85.7913 80.3134 85.4835 80.3174 85.1797 80.3174 84.8719 80.3213 84.4434 80.3213 84.0187 80.3252 83.5902 80.3291 83.4616 80.3291 83.3369 80.3291 83.2045 80.3291 82.5656 80.3369 82.1176 80.3524 81.5994 80.7771 81.0619 81.3887 81.0346 81.9653 81.0424 82.7561 81.0969 83.3093 81.2606 83.5937 81.5994 84.0339 81.9773 84.2715 82.2656 84.3261 82.7097 84.33 82.8266 84.33 82.9474 84.3338 83.0682 84.3338 83.1967 84.3338 83.3253 84.3338 83.4577 84.3338 83.594 84.3377 83.7266 84.3377 83.8668 84.3377 84.3187 84.3416 84.7667 84.3455 85.2147 84.3455 85.5263 84.3494 85.838 84.3533 86.1496 84.3533 86.9717 84.3611 87.7898 84.365 88.6079 84.3728 89.4454 84.3767 90.283 84.3845 91.1206 84.3884 92.7606 84.404 94.4008 84.4117 96.0447 84.4234 96.0447 86.2739 96.0447 88.1205 96.0447 90.0254 95.6162 90.0254 95.1916 90.0254 94.7513 90.0254 93.3451 90.0254 91.9348 90.0293 90.5285 90.0371 89.6753 90.0411 88.8221 90.0411 87.969 90.0411 87.143 90.0411 86.3211 90.045 85.4991 90.0489 85.1835 90.0489 84.868 90.0489 84.5563 90.0489 84.1161 90.0489 83.6759 90.0489 83.2357 90.0567 83.1033 90.0528 82.9746 90.0528 82.8383 90.0489 82.1955 90.0489 82.1955 90.0489 81.6346 90.3215 81.0463 91.0033 81.0424 91.6499 81.0502 92.507 81.0969 93.1381 81.3035 93.4927 81.7241 93.9484 82.3008 94.3068 82.8072 94.2679 83.4733 94.264 83.6058 94.2679 83.7421 94.2679 83.8824 94.2679 84.3304 94.2717 84.7783 94.2756 85.2303 94.2756 85.5381 94.2756 85.8497 94.2796 86.1614 94.2796 86.9795 94.2874 87.8015 94.2874 88.6195 94.2913 89.4532 94.2952 90.2908 94.2991 91.1245 94.303 92.7646 94.3146 94.4047 94.3185 96.0447 94.3263 96.0447 96.13 96.0447 97.9376 96.0447 99.7959 94.054 99.8076 92.0633 99.8192 90.0726 99.8231 89.1494 99.8271 88.2261 99.831 87.3028 99.8349 86.4964 99.8427 85.69 99.8427 84.8836 99.8466 84.455 99.8466 84.0304 99.8466 83.6058 99.8504 83.1266 99.8543 82.6474 99.8543 82.1722 99.8543 82.0319 99.8582 81.8955 99.8582 81.7514 99.8621 79.9906 99.8504 78.592 99.2856 77.2908 98.1168 75.6975 96.4962 75.1092 94.3263 75.043 92.1097 75.082 90.7851 75.2261 89.5268 75.8845 88.3659 76.1104 87.9568 76.2702 87.6141 76.3948 87.1582 76.2507 86.6518 76.017 86.2467 75.7442 85.8065 74.7587 84.1624 74.9457 81.786 75.3391 79.994 75.8183 78.0968 76.948 76.5775 78.6075 75.5646 79.414 75.1712 80.1815 74.8985 81.0814 74.8985ZM81.0814 74.8985"/>
<path transform="translate(0,0)" style="fill: rgb(253,253,253)" stroke-linecap="round" d="M305.9971 74.8556C306.1491 74.8556 306.301 74.8556 306.4607 74.8556 306.9594 74.8556 307.458 74.8595 307.9567 74.8634 308.3034 74.8634 308.6501 74.8634 309.0008 74.8634 309.8189 74.8673 310.6369 74.8712 311.455 74.8751 312.3861 74.8829 313.3211 74.8829 314.2521 74.8868 316.1689 74.8906 318.0855 74.9024 320.0022 74.9141 320.0022 76.6749 320.0022 78.4396 320.0022 80.2551 319.5892 80.259 319.1724 80.259 318.7478 80.2629 317.3765 80.2707 316.0091 80.2823 314.6417 80.294 313.8119 80.2979 312.9821 80.3057 312.1523 80.3096 311.3498 80.3135 310.5512 80.3213 309.7487 80.3291 309.4449 80.3291 309.1371 80.333 308.8332 80.333 308.4047 80.3369 307.9761 80.3408 307.5476 80.3447 307.4229 80.3447 307.2944 80.3447 307.1658 80.3447 306.3283 80.3486 306.3283 80.3486 305.5569 80.6447 305.3933 80.9485 305.3933 80.9485 305.2959 81.2952 305.2491 81.4004 305.2024 81.5017 305.1518 81.6069 304.8908 82.3822 305.0349 82.9587 305.3816 83.6677 305.6309 83.9989 305.8258 84.1157 306.2075 84.2949 306.6555 84.3533 307.0996 84.3494 307.5476 84.3494 307.6839 84.3494 307.8165 84.3533 307.9567 84.3533 308.4008 84.3572 308.8449 84.3572 309.289 84.3611 309.5968 84.3611 309.9045 84.365 310.2162 84.369 311.0265 84.3729 311.8368 84.3768 312.6471 84.3806 313.4768 84.3845 314.3028 84.3923 315.1326 84.3962 316.7532 84.4079 318.3777 84.4157 320.0022 84.4234 320.0022 86.2739 320.0022 88.1205 320.0022 90.0255 319.3633 90.0255 319.3633 90.0255 318.7088 90.0255 317.2986 90.0294 315.8883 90.0371 314.4819 90.0411 313.6249 90.0489 312.7718 90.0489 311.9186 90.0528 311.0927 90.0528 310.2707 90.0567 309.4449 90.0606 309.1293 90.0645 308.8138 90.0645 308.4981 90.0645 308.0579 90.0606 307.6177 90.0645 307.1775 90.0684 306.9827 90.0684 306.9827 90.0684 306.7841 90.0684 306.0633 90.0684 306.0633 90.0684 305.4829 90.4579 305.1089 91.1631 304.957 91.837 305.0388 92.6317 305.2063 93.1732 305.366 93.6446 305.8101 94.0108 306.3906 94.2757 306.9204 94.2523 307.5476 94.2523 307.6839 94.2523 307.8165 94.2523 307.9567 94.2562 308.4008 94.2601 308.8449 94.2601 309.289 94.2601 309.5968 94.264 309.9045 94.264 310.2162 94.2679 311.0265 94.2757 311.8368 94.2796 312.6471 94.2835 313.4768 94.2874 314.3028 94.2913 315.1326 94.2991 316.7532 94.3069 318.3777 94.3185 320.0022 94.3263 320.0022 96.13 320.0022 97.9376 320.0022 99.7959 318.0309 99.8076 316.0559 99.8193 314.0846 99.8231 313.1691 99.8271 312.2498 99.831 311.3342 99.8349 310.4499 99.8427 309.5656 99.8427 308.6812 99.8466 308.3423 99.8466 308.0074 99.8505 307.6684 99.8505 305.1401 99.8738 303.1689 99.8115 301.2405 98.0039 299.4835 96.1651 299.0979 93.8472 299.1407 91.4045 299.1952 90.0294 299.5224 88.7399 300.2548 87.5634 300.3834 87.2868 300.3834 87.2868 300.2587 86.9751 300.177 86.8077 300.177 86.8077 300.0913 86.6401 299.9822 86.3869 299.877 86.1376 299.7679 85.8883 299.7134 85.7636 299.6589 85.6389 299.6004 85.5104 298.8134 83.3599 298.9381 80.7187 299.8653 78.6423 300.6444 77.0099 301.8287 75.7673 303.5428 75.1556 304.3765 74.8868 305.1283 74.844 305.9971 74.8556ZM305.9971 74.8556"/>
<path transform="translate(0,0)" style="fill: rgb(253,253,253)" stroke-linecap="round" d="M106.5839 74.9141C108.6058 74.8985 110.6276 74.8867 112.6496 74.879 113.5884 74.8751 114.5273 74.8712 115.4661 74.8634 116.2842 74.8595 117.1023 74.8517 117.9243 74.8517 118.3567 74.8517 118.7891 74.8479 119.2216 74.844 123.5692 74.8011 123.5692 74.8011 125.3222 76.4762 125.404 76.5502 125.4819 76.6242 125.5638 76.7022 127.161 78.354 127.6012 80.5472 127.5817 82.7639 127.5233 84.8676 126.865 86.7765 125.3807 88.3075 123.69 89.819 121.8901 90.006 119.7202 90.0995 119.5955 90.1034 119.4709 90.1112 119.3423 90.1151 119.0346 90.1307 118.7307 90.1423 118.4268 90.154 118.5126 90.1891 118.5944 90.2202 118.6839 90.2553 119.4942 90.5631 120.3006 90.8709 121.1109 91.1786 121.5278 91.3383 121.9447 91.4942 122.3576 91.6539 122.8407 91.837 123.3199 92.0201 123.8029 92.2032 124.0211 92.285 124.0211 92.285 124.2432 92.3707 125.4352 92.8265 126.6118 93.3173 127.796 93.8043 127.796 95.7795 127.796 97.7584 127.796 99.7959 127.2467 99.7064 126.8805 99.6361 126.3897 99.4375 126.2104 99.3635 126.2104 99.3635 126.0273 99.2895 125.8365 99.2116 125.8365 99.2116 125.6378 99.1336 125.4313 99.0479 125.4313 99.0479 125.2209 98.9623 124.769 98.7792 124.3133 98.5961 123.8574 98.413 123.2964 98.187 122.7354 97.9611 122.1745 97.7351 121.9213 97.6299 121.6719 97.5286 121.4187 97.4273 119.58 96.6871 117.7334 95.9547 115.8908 95.2224 115.47 95.0587 115.0493 94.8912 114.6324 94.7237 113.8572 94.416 113.0859 94.1121 112.3106 93.8043 112.2677 95.7795 112.2249 97.7584 112.182 99.7959 110.3354 99.7959 108.4889 99.7959 106.5839 99.7959 106.5761 97.6961 106.5761 97.6961 106.5722 96.7885 106.5722 96.1729 106.5683 95.5613 106.5644 94.9457 106.5605 94.4471 106.5605 93.9523 106.5605 93.4537 106.5605 93.2667 106.5605 93.0797 106.5566 92.8927 106.5371 90.3956 106.7359 87.992 108.5357 86.1064 110.1835 84.5248 112.143 84.3845 114.3285 84.3884 114.5077 84.3884 114.683 84.3845 114.8623 84.3845 115.6025 84.3768 116.3465 84.3768 117.0867 84.3729 117.5464 84.3729 118.0022 84.369 118.4619 84.365 118.7151 84.365 118.9722 84.365 119.2293 84.365 120.3669 84.3611 120.3669 84.3611 121.2902 83.7729 121.7304 83.1496 121.707 82.4562 121.6291 81.7276 121.5356 81.381 121.3798 81.1822 121.1577 80.9057 121.1577 80.82 121.1577 80.7342 121.1577 80.6447 120.515 80.3018 119.8682 80.3447 119.1553 80.3447 119.019 80.3408 118.8827 80.3408 118.7462 80.3408 118.2944 80.3369 117.8464 80.333 117.3984 80.333 117.0867 80.3291 116.7751 80.3252 116.4634 80.3252 115.6453 80.3174 114.8272 80.3135 114.0091 80.3057 113.1754 80.3018 112.3379 80.294 111.5042 80.2901 109.8641 80.2746 108.224 80.2668 106.5839 80.2551 106.5839 78.4903 106.5839 76.7295 106.5839 74.9141ZM106.5839 74.9141"/>
<path transform="translate(0,0)" style="fill: rgb(253,253,253)" stroke-linecap="round" d="M181.5322 74.8828C181.7581 74.8828 181.7581 74.8828 181.9919 74.8828 182.4944 74.8828 182.997 74.8867 183.4956 74.8867 183.8463 74.8867 184.1929 74.8906 184.5436 74.8906 185.3655 74.8906 186.1875 74.8906 187.0095 74.8946 187.9445 74.8985 188.8834 74.8985 189.8184 74.8985 191.7428 74.9023 193.6712 74.9062 195.5956 74.914 195.5956 76.6748 195.5956 78.4396 195.5956 80.2551 194.9684 80.2551 194.9684 80.2551 194.3296 80.2551 192.9505 80.2589 191.5676 80.2628 190.1884 80.2706 189.3509 80.2745 188.5172 80.2784 187.6796 80.2784 186.8732 80.2823 186.0629 80.2862 185.2564 80.2901 184.9487 80.2939 184.6409 80.2939 184.3332 80.2901 183.9008 80.2901 183.4684 80.2939 183.0398 80.2978 182.9113 80.2978 182.7827 80.2978 182.6503 80.2939 182.0698 80.3056 181.6686 80.3252 181.2049 80.6992 180.5894 81.3536 180.5738 81.8483 180.5894 82.7326 180.6478 83.2975 180.7998 83.5858 181.1504 84.0338 181.6023 84.3377 182.0035 84.326 182.5373 84.3299 182.623 84.3299 182.7086 84.3299 182.7983 84.3299 182.9853 84.3338 183.1723 84.3338 183.3593 84.3338 183.6554 84.3338 183.9514 84.3338 184.2475 84.3377 185.0929 84.3455 185.9343 84.3494 186.7797 84.3533 187.2978 84.3533 187.812 84.3571 188.3302 84.3649 188.525 84.3649 188.7198 84.3649 188.9184 84.3649 191.1897 84.3649 193.0517 84.6922 194.7581 86.2933 196.5502 88.2451 196.8774 90.6565 196.7877 93.1965 196.6631 95.0938 195.8605 97.0884 194.423 98.3622 193.0206 99.4452 191.5753 99.8776 189.8184 99.8543 189.5924 99.8543 189.5924 99.8543 189.3586 99.8543 188.86 99.8543 188.3613 99.8504 187.8627 99.8465 187.516 99.8465 187.1654 99.8465 186.8186 99.8465 186.0005 99.8426 185.1824 99.8387 184.3644 99.8348 183.4294 99.8271 182.4983 99.8271 181.5633 99.8231 179.6466 99.8153 177.7339 99.8075 175.8172 99.7959 175.8172 98.035 175.8172 96.2702 175.8172 94.4548 176.2302 94.4548 176.6431 94.4509 177.0677 94.4509 178.4351 94.447 179.8025 94.4393 181.1699 94.4315 181.9997 94.4276 182.8294 94.4198 183.6554 94.4198 184.4579 94.4159 185.2564 94.412 186.0551 94.4081 186.3628 94.4042 186.6667 94.4042 186.9706 94.4042 187.3991 94.4042 187.8277 94.4003 188.2522 94.3964 188.3808 94.3964 188.5054 94.3964 188.638 94.3964 189.3703 94.3847 189.8144 94.3068 190.391 93.8043 190.8429 93.0602 190.8936 92.3161 190.7806 91.459 190.5858 90.8669 190.391 90.5046 189.869 90.154 189.4911 90.1151 189.4911 90.1151 189.0548 90.1189 188.8834 90.1151 188.7159 90.1151 188.5444 90.1151 188.451 90.1112 188.3613 90.1112 188.2679 90.1112 187.9835 90.1112 187.6991 90.1073 187.4147 90.1073 186.8108 90.0994 186.2071 90.0955 185.5993 90.0916 184.902 90.0877 184.2046 90.08 183.5073 90.0722 183.2307 90.0722 182.9541 90.0683 182.6775 90.0683 180.5544 90.0527 178.4312 89.8618 176.8106 88.3191 175.938 87.3063 175.2601 86.2466 174.9056 84.9455 174.8744 84.848 174.8471 84.7507 174.816 84.6532 174.2395 82.3703 174.629 79.8031 175.8016 77.7851 176.7599 76.4022 178.0182 75.3698 179.6662 74.9686 180.2817 74.8595 180.905 74.8789 181.5322 74.8828ZM181.5322 74.8828"/>
<path transform="translate(0,0)" style="fill: rgb(253,253,253)" stroke-linecap="round" d="M125.0696 35.5502C125.1981 35.5502 125.3267 35.5502 125.4591 35.5502 125.5994 35.5502 125.7397 35.5541 125.8838 35.5541 126.0318 35.5541 126.1799 35.5541 126.3357 35.5541 126.8265 35.5541 127.3174 35.5541 127.8083 35.5541 128.1472 35.5541 128.4861 35.5541 128.8289 35.5541 129.6314 35.5541 130.4379 35.558 131.2404 35.558 132.1558 35.558 133.0713 35.562 133.9869 35.562 135.8723 35.562 137.754 35.5659 139.6396 35.5698 139.6396 37.3306 139.6396 39.0914 139.6396 40.9107 139.2343 40.9107 138.8292 40.9146 138.4085 40.9146 137.0722 40.9225 135.7321 40.9302 134.392 40.938 133.5778 40.9458 132.7675 40.9497 131.9533 40.9536 131.1703 40.9575 130.3872 40.9614 129.6042 40.9691 129.3042 40.973 129.0042 40.973 128.7081 40.973 128.2874 40.9769 127.8706 40.9808 127.4499 40.9848 127.3252 40.9848 127.2044 40.9808 127.0759 40.9808 126.3512 40.9926 125.837 41.086 125.1943 41.4289 124.7541 41.908 124.6372 42.5041 124.6177 43.1391 124.6411 43.6961 124.7463 44.0896 125.0618 44.5571 125.6228 45.0635 126.1137 45.0947 126.8538 45.0947 126.9395 45.0987 127.0291 45.0987 127.1226 45.0987 127.3135 45.0987 127.5044 45.0987 127.6992 45.0987 128.0069 45.1025 128.3108 45.1025 128.6186 45.1064 129.4912 45.1142 130.3639 45.1181 131.2326 45.122 131.7663 45.122 132.3 45.1259 132.8337 45.1298 133.0363 45.1337 133.2389 45.1337 133.4414 45.1337 135.3387 45.1298 137.1813 45.4336 138.6188 46.7776 140.5979 48.8969 140.9134 51.2733 140.8316 54.0626 140.7147 56.069 139.7759 57.783 138.3384 59.1465 136.9048 60.3347 135.2958 60.6035 133.4921 60.5957 133.3441 60.5957 133.1999 60.5957 133.048 60.5957 132.5649 60.5957 132.0857 60.5957 131.6027 60.5957 131.2676 60.5918 130.9365 60.5918 130.6015 60.5918 129.8107 60.5918 129.0198 60.5918 128.2329 60.5918 127.333 60.5879 126.4331 60.5879 125.5331 60.5879 123.6866 60.5879 121.8362 60.584 119.9895 60.5801 119.9895 58.8193 119.9895 57.0545 119.9895 55.2391 120.5856 55.2352 120.5856 55.2352 121.1934 55.2313 122.5101 55.2235 123.823 55.2119 125.1397 55.2041 125.9383 55.1963 126.733 55.1884 127.5316 55.1845 128.303 55.1807 129.0705 55.1729 129.8418 55.169 130.134 55.1651 130.4262 55.1612 130.7222 55.1612 131.1313 55.1573 131.5443 55.1534 131.9533 55.1495 132.074 55.1495 132.1987 55.1495 132.3234 55.1495 133.0752 55.1418 133.7259 55.1028 134.3335 54.6119 134.9568 53.8367 134.9179 52.9328 134.8244 51.9823 134.6997 51.5811 134.5751 51.4058 134.3024 51.0707 133.7843 50.798 133.3362 50.7786 132.7558 50.7747 132.6662 50.7747 132.5805 50.7747 132.487 50.7747 132.3 50.7708 132.1091 50.7708 131.9183 50.7708 131.6183 50.7708 131.3183 50.7668 131.0144 50.7668 130.1573 50.759 129.3003 50.7551 128.4433 50.7512 127.9173 50.7474 127.3914 50.7435 126.8655 50.7396 126.6668 50.7396 126.4681 50.7357 126.2694 50.7357 124.158 50.7357 122.3932 50.4007 120.8037 48.9203 119.0546 47.0036 118.5871 44.7597 118.6884 42.2119 118.8248 40.599 119.413 39.2005 120.3792 37.911 120.4375 37.8331 120.4921 37.7513 120.5505 37.6695 121.6024 36.306 123.3711 35.5502 125.0696 35.5502ZM125.0696 35.5502"/>
<path transform="translate(0,0)" style="fill: rgb(253,253,253)" stroke-linecap="round" d="M166.4315 36.7891C167.869 38.0279 168.3288 40.6186 168.9092 42.3521 169.0067 42.6404 169.104 42.9327 169.2053 43.2209 169.404 43.817 169.6026 44.4091 169.8013 45.0013 170.0234 45.6636 170.2455 46.3258 170.4675 46.9842 171.6246 50.4085 172.7231 53.8484 173.7984 57.2961 173.8412 57.4246 173.8802 57.5532 173.9231 57.6856 173.9971 57.9272 174.0711 58.1687 174.1451 58.4103 174.2191 58.6479 174.293 58.8817 174.3671 59.1192 174.4022 59.2322 174.4411 59.3491 174.4762 59.466 174.5074 59.5673 174.5424 59.6724 174.5736 59.7738 174.6437 60.0621 174.6437 60.0621 174.6437 60.5802 172.6258 60.5802 170.6077 60.5802 168.5275 60.5802 168.1457 59.4037 168.1457 59.4037 167.7561 58.2038 166.7237 55.0171 165.6641 51.8382 164.6045 48.6632 164.359 47.9269 164.1175 47.1945 163.8721 46.4621 163.4786 45.2857 163.0891 44.1092 162.6955 42.9365 162.5124 42.3911 162.3333 41.8457 162.1502 41.3004 161.9359 41.2575 161.7217 41.2146 161.4996 41.1678 161.4685 41.2965 161.4685 41.2965 161.4334 41.425 161.1763 42.3911 160.8763 43.3416 160.5568 44.2884 160.5062 44.4519 160.4516 44.6156 160.3932 44.783 160.2491 45.2234 160.1011 45.6636 159.953 46.1038 159.7972 46.5673 159.6452 47.031 159.4894 47.4945 159.1972 48.371 158.9051 49.2476 158.6129 50.1241 158.2818 51.1175 157.9467 52.1148 157.6156 53.1082 157.0507 54.8106 156.482 56.5092 155.9132 58.2116 155.8664 58.3518 155.8197 58.4959 155.7729 58.6401 155.7106 58.8193 155.7106 58.8193 155.6482 59.0063 155.473 59.5322 155.2977 60.0542 155.1224 60.5802 153.1044 60.5802 151.0864 60.5802 149.01 60.5802 149.1814 59.8049 149.3605 59.0609 149.5982 58.305 149.6294 58.1999 149.6605 58.0947 149.6956 57.9856 149.8047 57.6312 149.9138 57.2766 150.0267 56.926 150.0813 56.739 150.0813 56.739 150.1436 56.5481 151.6512 51.7136 153.2407 46.9063 154.8614 42.1107 154.947 41.8496 155.0367 41.5925 155.1224 41.3315 156.5599 37.0619 156.5599 37.0619 158.1999 36.1774 160.8062 34.9893 164.0747 35.0594 166.4315 36.7891ZM166.4315 36.7891"/>
<path transform="translate(0,0)" style="fill: rgb(253,253,253)" stroke-linecap="round" d="M263.38 36.7891C264.7591 37.9773 265.211 40.416 265.7681 42.0834 265.8615 42.3521 265.9512 42.621 266.0407 42.8898 266.2823 43.6028 266.5199 44.3156 266.7615 45.0324 266.9056 45.4648 267.0537 45.9011 267.1978 46.3336 268.4873 50.1592 269.7378 53.9964 270.9338 57.8532 270.9883 58.0324 270.9883 58.0324 271.0468 58.2116 271.1402 58.5233 271.2377 58.8349 271.3311 59.1466 271.374 59.279 271.374 59.279 271.413 59.4115 271.5415 59.8283 271.5921 60.14 271.5921 60.5802 269.617 60.5802 267.6419 60.5802 265.6083 60.5802 265.2616 59.7192 264.9383 58.866 264.6461 57.9856 264.5838 57.8025 264.5838 57.8025 264.5214 57.6155 264.389 57.2143 264.2566 56.813 264.1241 56.4079 264.0267 56.1235 263.9332 55.8391 263.8397 55.5547 263.5904 54.8028 263.341 54.0549 263.0917 53.303 262.8424 52.555 262.5931 51.807 262.3476 51.063 261.962 49.9099 261.5802 48.7567 261.1984 47.6036 260.7115 46.1388 260.2245 44.6779 259.7375 43.217 259.7064 43.1158 259.6713 43.0144 259.6363 42.9131 259.4571 42.3756 259.2778 41.8379 259.0986 41.3004 258.8844 41.3432 258.6701 41.3861 258.4481 41.4289 257.8637 43.182 257.2832 44.9312 256.6988 46.6842 256.4262 47.4984 256.1574 48.3126 255.8846 49.1268 255.5691 50.0657 255.2574 51.0084 254.9419 51.9511 254.8912 52.107 254.8407 52.2589 254.7861 52.4187 254.0615 54.5925 253.3447 56.7741 252.6473 58.9557 252.6162 59.0491 252.585 59.1427 252.5577 59.2361 252.4798 59.4777 252.402 59.7231 252.324 59.9647 252.2032 60.3192 252.2032 60.3192 252.0746 60.5802 250.0567 60.5802 248.0388 60.5802 245.9584 60.5802 246.5545 58.1843 246.5545 58.1843 246.9401 57.0079 246.983 56.8753 247.0258 56.7429 247.0687 56.6027 247.2089 56.1741 247.3452 55.7417 247.4856 55.3131 247.5868 55.0094 247.6842 54.7016 247.7816 54.3977 248.0348 53.6146 248.2881 52.8317 248.5413 52.0486 248.6854 51.6123 248.8256 51.1759 248.9659 50.7396 249.8619 47.9698 250.7657 45.2038 251.6968 42.4457 251.7786 42.2041 251.8604 41.9587 251.9422 41.7172 252.324 40.568 252.7253 39.4266 253.2005 38.3085 253.2356 38.2266 253.2746 38.1409 253.3096 38.0553 253.781 36.98 254.529 36.4463 255.5691 35.9749 258.1052 35.0244 261.1517 35.1529 263.38 36.7891ZM263.38 36.7891"/>
<path transform="translate(0,0)" style="fill: rgb(253,253,253)" stroke-linecap="round" d="M57.0046 75.8255C58.2045 76.6631 58.5513 77.9175 59.0187 79.2537 59.0771 79.4135 59.1317 79.5693 59.1901 79.7329 59.3732 80.255 59.5563 80.777 59.7356 81.2951 59.7979 81.4704 59.8602 81.6457 59.9187 81.821 61.4146 86.1141 62.8015 90.4383 64.1727 94.7742 64.274 95.0858 64.3714 95.3975 64.4688 95.7091 64.6091 96.1455 64.7493 96.5858 64.8856 97.026 64.9285 97.1545 64.9675 97.2831 65.0103 97.4155 65.0687 97.6025 65.0687 97.6025 65.1272 97.7895 65.1623 97.8947 65.1934 97.9998 65.2285 98.1089 65.3765 98.6621 65.4778 99.2309 65.5908 99.7958 63.5728 99.7958 61.5548 99.7958 59.4745 99.7958 58.446 96.7064 58.446 96.7064 57.9903 95.3469 57.6864 94.4353 57.3825 93.5198 57.0786 92.6082 56.7864 91.7278 56.4904 90.8434 56.1982 89.963 56.1476 89.8189 56.1008 89.6709 56.0502 89.5228 55.532 87.9606 55.0139 86.3984 54.5075 84.8363 54.4646 84.7038 54.4217 84.5714 54.379 84.4351 54.1803 83.8156 53.9815 83.1962 53.7829 82.5768 53.7128 82.3586 53.6426 82.1405 53.5725 81.9223 53.5413 81.8249 53.5102 81.7275 53.479 81.6263 53.3427 81.2094 53.2141 80.8822 52.9687 80.516 52.7155 80.5432 52.7155 80.5432 52.4506 80.6445 52.2791 81.0185 52.1467 81.3652 52.0259 81.7548 51.9869 81.8716 51.948 81.9885 51.9052 82.1093 51.7766 82.4989 51.648 82.8923 51.5234 83.2819 51.4337 83.5585 51.3403 83.8351 51.2507 84.1078 51.0092 84.8402 50.7676 85.5726 50.53 86.305 50.2923 87.0295 50.0547 87.7503 49.8171 88.4709 49.0769 90.711 48.3445 92.951 47.6199 95.1949 47.5771 95.3235 47.5342 95.4559 47.4913 95.5924 47.2887 96.2078 47.0901 96.8233 46.8914 97.4427 46.8212 97.661 46.7472 97.8752 46.6771 98.0934 46.646 98.1907 46.6148 98.2882 46.5837 98.3894 46.4278 98.8686 46.2602 99.3283 46.0732 99.7958 44.0553 99.7958 42.0374 99.7958 39.957 99.7958 40.5531 97.4 40.5531 97.4 40.931 96.2507 40.97 96.1182 41.0127 95.9897 41.0556 95.8534 41.192 95.4287 41.3322 95.0041 41.4686 94.5755 41.5659 94.2755 41.6634 93.9717 41.7607 93.6679 42.0178 92.8731 42.275 92.0823 42.5321 91.2876 42.6879 90.8123 42.8399 90.3409 42.9957 89.8657 43.9384 86.9555 44.8851 84.0454 45.8707 81.1471 45.9369 80.9406 46.007 80.738 46.0772 80.5354 47.5108 76.2813 47.5108 76.2813 49.4548 75.3035 51.7727 74.3568 54.9009 74.3997 57.0046 75.8255ZM57.0046 75.8255"/>
<path transform="translate(0,0)" style="fill: rgb(253,253,253)" stroke-linecap="round" d="M251.2913 75.8256C251.373 75.8724 251.4509 75.9191 251.5328 75.9659 252.1016 76.3593 252.3587 76.8735 252.6197 77.4891 252.6781 77.6254 252.6781 77.6254 252.7404 77.7657 253.282 79.0551 253.7105 80.3875 254.1546 81.712 254.2519 82.0004 254.3494 82.2925 254.4467 82.5808 254.6455 83.1729 254.8441 83.7651 255.0428 84.3533 255.2609 85.0117 255.483 85.6661 255.7011 86.3207 256.6556 89.1411 257.575 91.9772 258.4749 94.8172 258.5528 95.0626 258.6347 95.3119 258.7126 95.5574 258.8606 96.0209 259.0047 96.4845 259.1528 96.9481 259.1957 97.0845 259.2384 97.2209 259.2852 97.365 259.3242 97.4935 259.3631 97.6221 259.406 97.7584 259.441 97.8675 259.4761 97.9805 259.5151 98.0935 259.6631 98.6545 259.7683 99.2271 259.8813 99.7959 257.8633 99.7959 255.8453 99.7959 253.765 99.7959 251.9535 94.3614 250.1459 88.923 248.3344 83.4884 248.2604 83.2742 248.2604 83.2742 248.1902 83.056 248.0811 82.7249 247.976 82.3938 247.8747 82.0587 247.8474 81.9691 247.8201 81.8796 247.7929 81.786 247.711 81.5328 247.637 81.2757 247.5592 81.0225 247.4306 80.6251 247.4306 80.6251 247.1073 80.5277 247.0293 80.5239 246.9514 80.52 246.8696 80.5161 246.4801 81.451 246.1411 82.4016 245.8217 83.3638 245.7749 83.5119 245.7242 83.6599 245.6737 83.8157 245.5372 84.2208 245.4048 84.6261 245.2685 85.0312 245.1282 85.4558 244.9841 85.8843 244.8438 86.3129 244.575 87.1232 244.3063 87.9335 244.0374 88.7438 243.7335 89.6553 243.4297 90.567 243.1259 91.4825 242.6038 93.0485 242.0857 94.6146 241.5637 96.1807 241.1624 97.3883 240.7612 98.5921 240.3598 99.7959 238.3419 99.7959 236.324 99.7959 234.2436 99.7959 234.415 99.0285 234.5943 98.2922 234.8241 97.5481 234.8552 97.4429 234.8865 97.3416 234.9215 97.2325 235.0306 96.8858 235.1358 96.5391 235.2448 96.1884 235.2838 96.0677 235.3228 95.943 235.3617 95.8184 236.9394 90.7617 238.6029 85.7285 240.3053 80.7109 240.3521 80.5667 240.3521 80.5667 240.4027 80.4225 241.7974 76.2814 241.7974 76.2814 243.7453 75.3036 246.0749 74.3531 249.1759 74.4154 251.2913 75.8256ZM251.2913 75.8256"/>
<path transform="translate(0,0)" style="fill: rgb(253,253,253)" stroke-linecap="round" d="M276.2171 74.8829C276.4197 74.8829 276.4197 74.8829 276.6222 74.8829 277.0624 74.8829 277.4988 74.8868 277.939 74.8868 278.2429 74.8868 278.5467 74.8907 278.8506 74.8907 279.6531 74.8907 280.4518 74.8907 281.2503 74.8947 282.0684 74.8985 282.8866 74.8985 283.7047 74.9024 285.3057 74.9024 286.9069 74.9063 288.5081 74.9141 288.5081 76.6749 288.5081 78.4397 288.5081 80.2551 287.6588 80.259 286.8096 80.2629 285.9329 80.2668 285.3915 80.2668 284.85 80.2707 284.3123 80.2746 283.4553 80.2824 282.5983 80.2863 281.7412 80.2901 281.0516 80.2901 280.3582 80.2979 279.6687 80.3018 279.4038 80.3057 279.1428 80.3057 278.8778 80.3057 278.5077 80.3057 278.1415 80.3096 277.7715 80.3135 277.6624 80.3135 277.5533 80.3135 277.4442 80.3135 276.5521 80.3291 275.7769 80.5746 275.0756 81.1394 273.233 83.3756 273.0888 86.0636 273.2837 88.8529 273.4784 90.5826 274.2264 92.6629 275.621 93.781 276.3496 94.1939 277.0313 94.2329 277.8455 94.2368 277.9585 94.2368 278.0753 94.2368 278.1961 94.2407 278.574 94.2446 278.9558 94.2446 279.3337 94.2485 279.5986 94.2523 279.8635 94.2523 280.1283 94.2562 280.8218 94.264 281.5153 94.2679 282.2126 94.2718 283.0462 94.2797 283.88 94.2874 284.7136 94.2952 285.9797 94.3069 287.2459 94.3147 288.5081 94.3263 288.5081 96.1301 288.5081 97.9377 288.5081 99.7959 286.7706 99.8037 285.0331 99.8115 283.2956 99.8154 282.4892 99.8193 281.6827 99.8232 280.8763 99.8272 280.0972 99.831 279.318 99.831 278.5389 99.8349 278.2429 99.8349 277.9429 99.8349 277.6469 99.8388 275.029 99.8544 272.8395 99.6713 270.8528 97.7546 270.7514 97.6572 270.654 97.5559 270.5528 97.4507 270.4631 97.3611 270.3697 97.2716 270.2761 97.178 267.3894 94.151 267.07 90.0021 267.1362 86.0441 267.2258 82.6704 268.6166 79.1798 271.0241 76.7879 272.5396 75.4712 274.2381 74.8673 276.2171 74.8829ZM276.2171 74.8829"/>
<path transform="translate(0,0)" style="fill: rgb(253,253,253)" stroke-linecap="round" d="M206.1349 74.914C208.1607 74.9023 210.1903 74.8906 212.2161 74.8867 213.155 74.8828 214.0977 74.8789 215.0366 74.875 215.8586 74.8672 216.6767 74.8672 217.4987 74.8633 217.935 74.8633 218.3675 74.8633 218.7998 74.8594 219.2868 74.8555 219.7738 74.8555 220.2608 74.8555 220.401 74.8517 220.5412 74.8517 220.6893 74.8478 222.4891 74.8594 223.8175 75.5179 225.1343 76.7099 226.6887 78.3267 227.1522 80.5355 227.1405 82.7054 227.0782 84.8519 226.3459 86.753 224.8733 88.3308 223.1825 89.8657 221.2268 90.041 219.0375 90.0488 218.7454 90.0527 218.4531 90.0527 218.157 90.0566 217.7013 90.0644 217.2455 90.0644 216.7858 90.0683 216.3417 90.0683 215.8976 90.076 215.4535 90.0799 215.2469 90.0799 215.2469 90.0799 215.0405 90.0799 214.0783 90.0955 213.416 90.2708 212.6447 90.8825 211.733 91.9538 211.6746 93.1732 211.694 94.5289 211.694 94.7548 211.694 94.7548 211.694 94.9885 211.698 95.4677 211.7019 95.9468 211.7097 96.4261 211.7097 96.7533 211.7097 97.0805 211.7136 97.4039 211.7175 98.2024 211.7253 99.0011 211.733 99.7958 209.8864 99.7958 208.0399 99.7958 206.1349 99.7958 206.1271 97.6571 206.1271 97.6571 206.1232 96.7377 206.1232 96.1105 206.1193 95.4872 206.1154 94.86 206.1154 94.3536 206.1116 93.851 206.1116 93.3446 206.1116 93.1536 206.1116 92.9627 206.1077 92.7718 206.0921 90.5007 206.2596 88.3502 207.6971 86.5076 207.7594 86.4297 207.8217 86.3478 207.888 86.2661 208.9476 85.0623 210.4553 84.6103 211.994 84.4233 212.6251 84.3883 213.2563 84.3845 213.8874 84.3845 214.0626 84.3806 214.2418 84.3806 214.4172 84.3767 215.1613 84.3728 215.9053 84.3689 216.6494 84.3649 217.1091 84.361 217.565 84.3571 218.0246 84.3532 218.2817 84.3493 218.5388 84.3493 218.7959 84.3493 218.9518 84.3493 219.1076 84.3455 219.2712 84.3455 219.4076 84.3455 219.5439 84.3455 219.6881 84.3416 220.2413 84.2676 220.5841 84.0532 220.9386 83.6248 221.2892 82.8223 221.3048 82.1054 221.0087 81.2873 220.6893 80.8042 220.3386 80.442 219.766 80.3251 219.4076 80.2978 219.0531 80.2978 218.6947 80.2978 218.4882 80.2978 218.4882 80.2978 218.2817 80.2939 217.8337 80.29 217.3857 80.2939 216.9377 80.2939 216.6261 80.29 216.3144 80.29 216.0067 80.2861 215.1886 80.2823 214.3704 80.2823 213.5523 80.2784 212.7187 80.2784 211.881 80.2745 211.0474 80.2706 209.4112 80.2589 207.7751 80.255 206.1349 80.255 206.1349 78.4902 206.1349 76.7294 206.1349 74.914ZM206.1349 74.914"/>
<path transform="translate(0,0)" style="fill: rgb(251,251,251)" stroke-linecap="round" d="M88.3669 35.5698C96.3102 35.5698 104.2536 35.5698 112.4384 35.5698 112.4384 37.3306 112.4384 39.0914 112.4384 40.9107 109.392 40.9107 106.3416 40.9107 103.2017 40.9107 103.2017 42.3171 103.2056 43.7274 103.2056 45.1804 103.2056 46.0686 103.2056 46.9607 103.2056 47.849 103.2095 49.2631 103.2095 50.6773 103.2095 52.0914 103.2134 53.1198 103.2134 54.1522 103.2134 55.1807 103.2134 55.7261 103.2134 56.2715 103.2134 56.8169 103.2134 57.3311 103.2173 57.8453 103.2173 58.3557 103.2173 58.5465 103.2173 58.7335 103.2173 58.9244 103.2173 59.1815 103.2173 59.4348 103.2173 59.6919 103.2173 59.8361 103.2173 59.9802 103.2173 60.1283 103.2017 60.4516 103.2017 60.4516 103.0693 60.5801 101.2656 60.5801 99.4618 60.5801 97.6036 60.5801 97.6036 54.0899 97.6036 47.5958 97.6036 40.9107 94.5571 40.9107 91.5068 40.9107 88.3669 40.9107 88.3669 39.146 88.3669 37.3851 88.3669 35.5698ZM88.3669 35.5698"/>
<path transform="translate(0,0)" style="fill: rgb(253,253,253)" stroke-linecap="round" d="M215.5045 35.5697C217.3939 35.5697 219.2833 35.5697 221.2311 35.5697 221.2351 36.5124 221.239 37.4552 221.2429 38.4252 221.2468 39.0251 221.2507 39.629 221.2546 40.2289 221.2584 41.1834 221.2662 42.1339 221.2662 43.0844 221.2701 43.8559 221.274 44.6233 221.2779 45.3907 221.2818 45.6829 221.2818 45.9751 221.2818 46.2672 221.2857 49.041 221.5078 51.6862 223.5296 53.7899 225.0255 55.1495 227.0085 55.0209 228.9096 55.0326 229.1355 55.0365 229.3576 55.0365 229.5796 55.0404 230.1601 55.0482 230.7406 55.052 231.321 55.0559 232.0184 55.0637 232.7157 55.0716 233.4169 55.0794 234.4727 55.091 235.5284 55.0988 236.588 55.1105 236.588 56.9142 236.588 58.7218 236.588 60.5801 233.9039 60.5918 233.9039 60.5918 232.7507 60.5956 231.9677 60.5956 231.1847 60.5956 230.3978 60.5995 229.7666 60.6034 229.1316 60.6034 228.5005 60.6073 228.259 60.6073 228.0213 60.6073 227.7799 60.6073 224.6166 60.6269 221.4961 60.2918 219.0184 58.1063 218.8743 57.9777 218.8743 57.9777 218.7223 57.8453 216.5407 55.8078 215.5941 52.6289 215.4928 49.6916 215.4889 49.3176 215.4889 48.9436 215.4928 48.5696 215.4928 48.4255 215.4928 48.2853 215.4928 48.1411 215.4928 47.6775 215.4928 47.2139 215.4928 46.7503 215.4928 46.427 215.4928 46.1076 215.4928 45.7842 215.4928 44.9388 215.4966 44.0895 215.4966 43.2442 215.5006 42.3794 215.5006 41.5145 215.5006 40.6496 215.5006 38.955 215.5045 37.2604 215.5045 35.5697ZM215.5045 35.5697"/>
<path transform="translate(0,0)" style="fill: rgb(253,253,253)" stroke-linecap="round" d="M184.0141 35.5698C185.8607 35.5698 187.7073 35.5698 189.6083 35.5698 189.6161 36.4268 189.6239 37.2877 189.6278 38.172 189.6318 38.7214 189.6396 39.2707 189.6434 39.82 189.6512 40.6887 189.659 41.5575 189.6629 42.4262 189.6707 43.1274 189.6746 43.8286 189.6823 44.5298 189.6862 44.7948 189.6862 45.0597 189.6862 45.3246 189.7058 48.3749 189.8148 51.433 192.0081 53.7977 193.4807 55.1613 195.5376 55.021 197.4192 55.0327 197.6413 55.0366 197.8634 55.0366 198.0854 55.0405 198.6658 55.0483 199.2464 55.0521 199.8268 55.056 200.5241 55.0638 201.2254 55.0717 201.9227 55.0795 202.9823 55.0911 204.0381 55.0989 205.0938 55.1106 205.0938 56.9143 205.0938 58.7219 205.0938 60.5802 202.4136 60.5919 202.4136 60.5919 201.2565 60.5957 200.4734 60.5957 199.6904 60.5957 198.9074 60.5996 198.2724 60.6035 197.6413 60.6035 197.0102 60.6074 196.7687 60.6074 196.5271 60.6074 196.2895 60.6074 194.4819 60.6192 192.6938 60.5685 190.9524 60.0348 190.8589 60.0075 190.7654 59.9802 190.6719 59.953 189.2149 59.4816 188.0852 58.6596 187.006 57.5844 186.9164 57.4986 186.8269 57.413 186.7294 57.3234 185.6269 56.1937 184.9997 54.7016 184.5517 53.2056 184.5245 53.1238 184.5011 53.0381 184.4738 52.9563 183.9206 50.9617 183.9791 48.9398 183.9869 46.8906 183.9908 46.5634 183.9908 46.2362 183.9908 45.909 183.9908 45.1376 183.9908 44.3702 183.9946 43.6027 183.9985 42.6366 183.9985 41.6744 184.0024 40.7121 184.0024 38.998 184.0102 37.2839 184.0141 35.5698ZM184.0141 35.5698"/>
<path transform="translate(0,0)" style="fill: rgb(253,253,253)" stroke-linecap="round" d="M145.1291 74.8867C145.3122 74.8867 145.3122 74.8867 145.4992 74.8906 145.8888 74.8906 146.2783 74.8946 146.664 74.8985 146.9289 74.8985 147.1939 74.8985 147.4587 74.9023 148.1054 74.9023 148.7521 74.9101 149.3988 74.914 149.3988 76.6748 149.3988 78.4396 149.3988 80.255 147.5288 80.2784 147.5288 80.2784 146.9445 80.2823 145.6862 80.3134 144.6811 80.5122 143.7695 81.4276 142.1372 83.5742 141.9775 86.4803 142.2814 89.0671 142.5501 90.8046 143.1423 92.4485 144.4513 93.6718 145.1213 94.1549 145.6901 94.2094 146.5004 94.2367 146.6523 94.2406 146.8042 94.2445 146.9601 94.2523 147.1549 94.2561 147.3457 94.26 147.5444 94.2678 148.1561 94.2874 148.7677 94.3068 149.3988 94.3263 149.3988 96.13 149.3988 97.9376 149.3988 99.7958 148.5378 99.8075 147.673 99.8192 146.7887 99.831 146.5199 99.8348 146.2511 99.8387 145.9745 99.8426 143.5748 99.8698 141.4555 99.4374 139.6361 97.7234 136.9988 94.934 136.095 91.3928 136.0911 87.6335 136.0911 87.5399 136.0911 87.4465 136.0911 87.349 136.095 85.9076 136.1573 84.5208 136.5157 83.1223 136.5352 83.0326 136.5585 82.947 136.5819 82.8573 137.2754 80.1576 138.6934 77.5203 141.0697 75.9542 142.4099 75.2218 143.6098 74.8711 145.1291 74.8867ZM145.1291 74.8867"/>
<path transform="translate(0,0)" style="fill: rgb(253,253,253)" stroke-linecap="round" d="M151.4796 74.914C152.2471 74.9024 153.0107 74.8906 153.7781 74.8828 154.0392 74.8828 154.2963 74.8789 154.5573 74.875 157.0154 74.8323 159.049 75.1283 160.9345 76.8774 162.298 78.2059 163.1785 79.7759 163.8408 81.5562 163.8914 81.6887 163.942 81.8173 163.9926 81.9536 165.3913 86.0401 165.1068 91.0111 163.2174 94.895 162.785 95.7443 162.2786 96.4845 161.6318 97.1896 161.5384 97.2949 161.4448 97.3962 161.3514 97.5013 160.1437 98.783 158.4725 99.7335 156.6766 99.8075 156.3455 99.8114 156.0181 99.8114 155.687 99.8075 155.5273 99.8075 155.5273 99.8075 155.3637 99.8075 154.9663 99.8075 154.569 99.8075 154.1716 99.8037 153.2833 99.8037 152.3951 99.7998 151.4796 99.7959 151.4796 97.9922 151.4796 96.1846 151.4796 94.3263 153.2872 94.2991 153.2872 94.2991 153.8482 94.2991 155.0014 94.2678 155.9675 94.116 156.8207 93.2823 158.5465 91.3149 158.7646 88.5568 158.6595 86.0636 158.5426 84.2482 158.005 82.3431 156.6843 81.0381 155.6558 80.2862 154.5806 80.2862 153.3496 80.2784 152.7341 80.2706 152.1147 80.2629 151.4796 80.2551 151.4796 78.4903 151.4796 76.7294 151.4796 74.914ZM151.4796 74.914"/>
</svg>