<svg version="1.1" viewBox="0 0 375 145" height="145px" width="376px" xmlns:xlink="http://www.w3.org/1999/xlink" xmlns="http://www.w3.org/2000/svg">
<g id="surface1">
<path d="M 0 11.886719 C 17.523438 11.886719 35.050781 11.886719 53.105469 11.886719 C 53.535156 12.707031 53.964844 13.527344 54.410156 14.371094 C 54.765625 14.875 54.765625 14.875 55.128906 15.394531 C 58.15625 19.839844 57.507812 25.355469 57.433594 30.488281 C 57.414062 31.921875 57.410156 33.359375 57.40625 34.796875 C 57.402344 37.359375 57.382812 39.921875 57.355469 42.484375 C 57.332031 44.96875 57.3125 47.449219 57.300781 49.933594 C 57.300781 50.167969 57.300781 50.167969 57.296875 50.402344 C 57.296875 51.171875 57.292969 51.945312 57.289062 52.71875 C 57.261719 59.09375 57.210938 65.46875 57.148438 71.847656 C 56.777344 71.660156 56.753906 71.390625 56.625 71.015625 C 56.59375 70.914062 56.558594 70.8125 56.527344 70.707031 C 56.488281 70.597656 56.453125 70.492188 56.417969 70.382812 C 56.296875 70.019531 56.175781 69.660156 56.058594 69.296875 C 55.972656 69.039062 55.886719 68.78125 55.796875 68.523438 C 55.5625 67.820312 55.332031 67.117188 55.097656 66.414062 C 54.855469 65.679688 54.609375 64.945312 54.363281 64.210938 C 53.953125 62.976562 53.542969 61.742188 53.132812 60.511719 C 52.660156 59.082031 52.1875 57.652344 51.710938 56.226562 C 51.253906 54.855469 50.796875 53.484375 50.339844 52.113281 C 50.148438 51.527344 49.953125 50.945312 49.757812 50.359375 C 49.527344 49.671875 49.300781 48.984375 49.074219 48.296875 C 48.988281 48.042969 48.90625 47.789062 48.820312 47.535156 C 48.707031 47.191406 48.589844 46.847656 48.476562 46.503906 C 48.445312 46.402344 48.410156 46.300781 48.375 46.195312 C 48.246094 45.804688 48.148438 45.484375 48.148438 45.066406 C 48.074219 45.042969 48.003906 45.023438 47.929688 45 C 47.230469 44.769531 46.558594 44.511719 45.886719 44.210938 C 45.785156 44.164062 45.683594 44.121094 45.578125 44.074219 C 45.242188 43.925781 44.910156 43.777344 44.574219 43.628906 C 44.335938 43.527344 44.101562 43.421875 43.863281 43.316406 C 43.238281 43.039062 42.617188 42.765625 41.996094 42.488281 C 41.402344 42.226562 40.804688 41.960938 40.210938 41.699219 C 39.511719 41.390625 38.8125 41.082031 38.113281 40.769531 C 36.523438 40.066406 34.929688 39.367188 33.335938 38.667969 C 31.390625 37.8125 29.449219 36.953125 27.503906 36.09375 C 25.796875 35.335938 24.085938 34.585938 22.378906 33.832031 C 20.433594 32.980469 18.488281 32.121094 16.546875 31.261719 C 14.449219 30.332031 12.351562 29.410156 10.25 28.488281 C 9.949219 28.355469 9.648438 28.222656 9.34375 28.089844 C 8.929688 27.90625 8.511719 27.722656 8.09375 27.542969 C 7.878906 27.453125 7.667969 27.363281 7.457031 27.269531 C 7.363281 27.230469 7.265625 27.1875 7.167969 27.148438 C 6.324219 26.777344 5.71875 26.269531 5.089844 25.605469 C 4.992188 25.515625 4.898438 25.425781 4.800781 25.335938 C 2.796875 23.460938 1.316406 20.902344 0.523438 18.289062 C 0.496094 18.199219 0.46875 18.109375 0.4375 18.019531 C -0.164062 15.949219 0 14.105469 0 11.886719 Z M 0 11.886719" style="stroke:none;fill-rule:nonzero;fill:rgb(99.215686%,99.215686%,99.215686%);fill-opacity:1;"></path>
<path d="M 79.59375 11.886719 C 97.117188 11.886719 114.640625 11.886719 132.699219 11.886719 C 133.40625 15.4375 132.257812 19.4375 130.308594 22.417969 C 129.761719 23.222656 129.148438 23.984375 128.523438 24.730469 C 128.464844 24.800781 128.40625 24.871094 128.34375 24.941406 C 128.148438 25.167969 127.945312 25.386719 127.738281 25.605469 C 127.65625 25.695312 127.570312 25.785156 127.484375 25.882812 C 126.488281 26.878906 125.308594 27.339844 124.03125 27.875 C 123.792969 27.972656 123.554688 28.074219 123.316406 28.175781 C 122.824219 28.390625 122.328125 28.601562 121.832031 28.8125 C 120.757812 29.269531 119.695312 29.742188 118.628906 30.214844 C 118.042969 30.476562 117.457031 30.738281 116.871094 30.996094 C 116.753906 31.046875 116.636719 31.097656 116.519531 31.152344 C 115.167969 31.75 113.820312 32.339844 112.46875 32.933594 C 110.75 33.6875 109.035156 34.445312 107.320312 35.203125 C 105.382812 36.0625 103.445312 36.917969 101.507812 37.765625 C 99.671875 38.574219 97.839844 39.382812 96.007812 40.195312 C 93.957031 41.101562 91.902344 42.011719 89.84375 42.910156 C 89.640625 42.996094 89.4375 43.089844 89.234375 43.183594 C 88.617188 43.464844 88 43.703125 87.355469 43.910156 C 85.5 44.539062 85.5 44.539062 84.183594 45.90625 C 83.777344 46.765625 83.519531 47.667969 83.261719 48.582031 C 83.15625 48.917969 83.046875 49.253906 82.9375 49.589844 C 82.683594 50.382812 82.441406 51.175781 82.207031 51.976562 C 81.945312 52.863281 81.667969 53.742188 81.386719 54.625 C 80.929688 56.074219 80.484375 57.523438 80.042969 58.976562 C 79.53125 60.65625 79.003906 62.332031 78.457031 64 C 78.402344 64.171875 78.402344 64.171875 78.34375 64.347656 C 77.777344 66.074219 77.199219 67.800781 76.609375 69.519531 C 76.527344 69.753906 76.449219 69.984375 76.367188 70.21875 C 76.183594 70.761719 75.996094 71.304688 75.808594 71.847656 C 75.765625 71.847656 75.722656 71.847656 75.679688 71.847656 C 75.589844 65.339844 75.519531 58.835938 75.480469 52.328125 C 75.472656 51.554688 75.46875 50.78125 75.464844 50.007812 C 75.460938 49.855469 75.460938 49.699219 75.460938 49.542969 C 75.445312 47.070312 75.414062 44.597656 75.375 42.125 C 75.339844 39.578125 75.316406 37.03125 75.308594 34.484375 C 75.304688 32.921875 75.289062 31.355469 75.257812 29.792969 C 75.234375 28.710938 75.230469 27.628906 75.234375 26.546875 C 75.238281 25.828125 75.230469 25.109375 75.199219 24.390625 C 75.09375 19.28125 77.085938 16.90625 79.59375 11.886719 Z M 79.59375 11.886719" style="stroke:none;fill-rule:nonzero;fill:rgb(99.215686%,99.215686%,99.215686%);fill-opacity:1;"></path>
<path d="M 62.109375 0 C 64.90625 0 67.707031 0 70.589844 0 C 70.820312 0.582031 70.980469 1.140625 71.121094 1.746094 C 71.15625 1.910156 71.15625 1.910156 71.195312 2.074219 C 71.28125 2.433594 71.363281 2.789062 71.445312 3.144531 C 71.503906 3.394531 71.5625 3.640625 71.621094 3.890625 C 71.773438 4.542969 71.925781 5.195312 72.078125 5.84375 C 72.234375 6.511719 72.390625 7.175781 72.546875 7.839844 C 72.851562 9.148438 73.15625 10.453125 73.460938 11.757812 C 75.398438 11.820312 75.398438 11.820312 77.375 11.886719 C 77.082031 12.761719 77.082031 12.761719 76.765625 13.191406 C 72.667969 18.9375 73.15625 25.128906 73.304688 31.902344 C 73.339844 33.5625 73.351562 35.222656 73.359375 36.882812 C 73.375 39.871094 73.40625 42.855469 73.449219 45.84375 C 73.449219 45.933594 73.449219 46.019531 73.453125 46.113281 C 73.46875 47.367188 73.488281 48.621094 73.503906 49.878906 C 73.582031 55.355469 73.652344 60.828125 73.679688 66.304688 C 73.683594 66.816406 73.6875 67.328125 73.691406 67.835938 C 73.753906 78.824219 72.921875 89.320312 70.773438 100.09375 C 70.277344 102.585938 69.953125 105.015625 69.941406 107.558594 C 69.9375 108.222656 69.910156 108.886719 69.882812 109.550781 C 69.859375 110.15625 69.839844 110.765625 69.820312 111.371094 C 69.636719 117.316406 69.636719 117.316406 69.414062 120.179688 C 69.410156 120.269531 69.402344 120.363281 69.394531 120.457031 C 69.128906 123.832031 68.582031 127.152344 67.996094 130.484375 C 67.476562 133.414062 67.476562 133.414062 67.1875 136.371094 C 67.179688 136.53125 67.167969 136.695312 67.160156 136.859375 C 67.109375 137.703125 67.0625 138.546875 67.019531 139.390625 C 67.003906 139.707031 66.984375 140.023438 66.96875 140.335938 C 66.949219 140.742188 66.925781 141.144531 66.910156 141.546875 C 66.792969 143.902344 66.792969 143.902344 66.542969 144.871094 C 66.457031 144.914062 66.371094 144.957031 66.285156 145 C 66.0625 144.101562 65.953125 143.234375 65.890625 142.3125 C 65.882812 142.164062 65.871094 142.011719 65.859375 141.855469 C 65.792969 140.9375 65.75 140.023438 65.71875 139.101562 C 65.613281 136.058594 65.246094 133.128906 64.707031 130.136719 C 64.515625 129.0625 64.339844 127.988281 64.164062 126.914062 C 64.140625 126.765625 64.140625 126.765625 64.113281 126.613281 C 63.324219 121.757812 63.121094 116.867188 62.957031 111.957031 C 62.929688 111.167969 62.902344 110.375 62.875 109.585938 C 62.863281 109.277344 62.851562 108.972656 62.84375 108.664062 C 62.824219 108.148438 62.804688 107.632812 62.777344 107.117188 C 62.765625 106.847656 62.753906 106.578125 62.742188 106.308594 C 62.640625 104.035156 62.367188 101.875 61.894531 99.644531 C 59.667969 89.039062 59.09375 78.589844 59.167969 67.765625 C 59.171875 67.253906 59.175781 66.742188 59.179688 66.230469 C 59.210938 60.449219 59.289062 54.667969 59.375 48.890625 C 59.390625 47.988281 59.402344 47.085938 59.417969 46.1875 C 59.417969 46.097656 59.417969 46.007812 59.421875 45.917969 C 59.453125 43.875 59.476562 41.832031 59.492188 39.789062 C 59.496094 39.699219 59.496094 39.613281 59.496094 39.527344 C 59.503906 38.578125 59.507812 37.628906 59.515625 36.679688 C 59.523438 35.019531 59.542969 33.363281 59.582031 31.707031 C 59.746094 24.429688 59.792969 18.367188 55.46875 12.238281 C 55.324219 12.019531 55.324219 12.019531 55.324219 11.886719 C 56.660156 11.886719 57.992188 11.886719 59.367188 11.886719 C 59.453125 11.414062 59.539062 10.9375 59.628906 10.449219 C 59.707031 10.089844 59.789062 9.730469 59.871094 9.371094 C 59.894531 9.273438 59.917969 9.175781 59.941406 9.074219 C 60.015625 8.757812 60.089844 8.441406 60.164062 8.125 C 60.214844 7.902344 60.269531 7.679688 60.320312 7.457031 C 60.429688 6.992188 60.535156 6.53125 60.644531 6.066406 C 60.785156 5.472656 60.921875 4.878906 61.0625 4.285156 C 61.167969 3.824219 61.277344 3.367188 61.382812 2.910156 C 61.433594 2.691406 61.484375 2.472656 61.539062 2.253906 C 61.609375 1.945312 61.679688 1.640625 61.75 1.335938 C 61.773438 1.246094 61.792969 1.15625 61.816406 1.0625 C 61.902344 0.703125 61.992188 0.351562 62.109375 0 Z M 65.238281 77.59375 C 64.117188 79.242188 63.789062 81.535156 63.542969 83.472656 C 63.523438 83.617188 63.523438 83.617188 63.507812 83.761719 C 63.359375 85.085938 63.382812 86.421875 63.378906 87.75 C 63.378906 87.882812 63.378906 88.015625 63.378906 88.148438 C 63.382812 91.480469 63.421875 95.773438 65.632812 98.496094 C 66.132812 98.828125 66.34375 98.855469 66.9375 98.757812 C 68.738281 97.414062 69.023438 94.402344 69.335938 92.328125 C 69.535156 90.855469 69.578125 89.382812 69.578125 87.898438 C 69.578125 87.796875 69.578125 87.691406 69.578125 87.585938 C 69.578125 81.964844 69.578125 81.964844 67.199219 77.070312 C 66.355469 76.511719 65.839844 76.910156 65.238281 77.59375 Z M 65.238281 77.59375" style="stroke:none;fill-rule:nonzero;fill:rgb(99.215686%,99.215686%,99.215686%);fill-opacity:1;"></path>
<path d="M 135.441406 75.097656 C 135.640625 75.097656 135.640625 75.097656 135.84375 75.097656 C 135.988281 75.097656 136.132812 75.097656 136.28125 75.097656 C 136.433594 75.097656 136.589844 75.097656 136.746094 75.097656 C 137.25 75.097656 137.757812 75.097656 138.261719 75.101562 C 138.613281 75.101562 138.960938 75.101562 139.3125 75.101562 C 140.140625 75.101562 140.96875 75.101562 141.796875 75.101562 C 142.738281 75.105469 143.683594 75.105469 144.625 75.105469 C 146.566406 75.105469 148.503906 75.109375 150.445312 75.113281 C 150.445312 76.878906 150.445312 78.648438 150.445312 80.46875 C 150.027344 80.46875 149.613281 80.472656 149.183594 80.472656 C 147.8125 80.480469 146.441406 80.488281 145.066406 80.5 C 144.234375 80.503906 143.402344 80.511719 142.570312 80.515625 C 141.769531 80.515625 140.964844 80.523438 140.164062 80.527344 C 139.855469 80.53125 139.550781 80.53125 139.242188 80.535156 C 138.8125 80.535156 138.386719 80.539062 137.957031 80.542969 C 137.828125 80.542969 137.703125 80.542969 137.570312 80.542969 C 136.929688 80.550781 136.480469 80.566406 135.960938 80.992188 C 135.421875 81.605469 135.394531 82.183594 135.402344 82.976562 C 135.457031 83.53125 135.621094 83.816406 135.960938 84.257812 C 136.339844 84.496094 136.628906 84.550781 137.074219 84.554688 C 137.191406 84.554688 137.3125 84.558594 137.433594 84.558594 C 137.5625 84.558594 137.691406 84.558594 137.824219 84.558594 C 137.960938 84.5625 138.09375 84.5625 138.234375 84.5625 C 138.6875 84.566406 139.136719 84.570312 139.585938 84.570312 C 139.898438 84.574219 140.210938 84.578125 140.523438 84.578125 C 141.347656 84.585938 142.167969 84.589844 142.988281 84.597656 C 143.828125 84.601562 144.667969 84.609375 145.507812 84.613281 C 147.152344 84.628906 148.796875 84.636719 150.445312 84.648438 C 150.445312 86.503906 150.445312 88.355469 150.445312 90.265625 C 150.015625 90.265625 149.589844 90.265625 149.148438 90.265625 C 147.738281 90.265625 146.324219 90.269531 144.914062 90.277344 C 144.058594 90.28125 143.203125 90.28125 142.347656 90.28125 C 141.519531 90.28125 140.695312 90.285156 139.871094 90.289062 C 139.554688 90.289062 139.238281 90.289062 138.925781 90.289062 C 138.484375 90.289062 138.042969 90.289062 137.601562 90.296875 C 137.46875 90.292969 137.339844 90.292969 137.203125 90.289062 C 136.558594 90.289062 136.558594 90.289062 135.996094 90.5625 C 135.40625 91.246094 135.402344 91.894531 135.410156 92.753906 C 135.457031 93.386719 135.664062 93.742188 136.085938 94.199219 C 136.664062 94.558594 137.171875 94.519531 137.839844 94.515625 C 137.972656 94.519531 138.109375 94.519531 138.25 94.519531 C 138.699219 94.523438 139.148438 94.527344 139.601562 94.527344 C 139.910156 94.527344 140.222656 94.53125 140.535156 94.53125 C 141.355469 94.539062 142.179688 94.539062 143 94.542969 C 143.835938 94.546875 144.675781 94.550781 145.511719 94.554688 C 147.15625 94.566406 148.800781 94.570312 150.445312 94.578125 C 150.445312 96.386719 150.445312 98.199219 150.445312 100.0625 C 148.449219 100.074219 146.453125 100.085938 144.457031 100.089844 C 143.53125 100.09375 142.605469 100.097656 141.679688 100.101562 C 140.871094 100.109375 140.0625 100.109375 139.253906 100.113281 C 138.824219 100.113281 138.398438 100.113281 137.972656 100.117188 C 137.492188 100.121094 137.011719 100.121094 136.535156 100.121094 C 136.394531 100.125 136.257812 100.125 136.113281 100.128906 C 134.347656 100.117188 132.945312 99.550781 131.640625 98.378906 C 130.042969 96.753906 129.453125 94.578125 129.386719 92.355469 C 129.425781 91.027344 129.570312 89.765625 130.230469 88.601562 C 130.457031 88.191406 130.617188 87.847656 130.742188 87.390625 C 130.597656 86.882812 130.363281 86.476562 130.089844 86.035156 C 129.101562 84.386719 129.289062 82.003906 129.683594 80.207031 C 130.164062 78.304688 131.296875 76.78125 132.960938 75.765625 C 133.769531 75.371094 134.539062 75.097656 135.441406 75.097656 Z M 135.441406 75.097656" style="stroke:none;fill-rule:nonzero;fill:rgb(99.215686%,99.215686%,99.215686%);fill-opacity:1;"></path>
<path d="M 360.957031 75.054688 C 361.109375 75.054688 361.261719 75.054688 361.421875 75.054688 C 361.921875 75.054688 362.421875 75.058594 362.921875 75.0625 C 363.269531 75.0625 363.617188 75.0625 363.96875 75.0625 C 364.789062 75.066406 365.609375 75.070312 366.429688 75.074219 C 367.363281 75.082031 368.300781 75.082031 369.234375 75.085938 C 371.15625 75.089844 373.078125 75.101562 375 75.113281 C 375 76.878906 375 78.648438 375 80.46875 C 374.585938 80.472656 374.167969 80.472656 373.742188 80.476562 C 372.367188 80.484375 370.996094 80.496094 369.625 80.507812 C 368.792969 80.511719 367.960938 80.519531 367.128906 80.523438 C 366.324219 80.527344 365.523438 80.535156 364.71875 80.542969 C 364.414062 80.542969 364.105469 80.546875 363.800781 80.546875 C 363.371094 80.550781 362.941406 80.554688 362.511719 80.558594 C 362.386719 80.558594 362.257812 80.558594 362.128906 80.558594 C 361.289062 80.5625 361.289062 80.5625 360.515625 80.859375 C 360.351562 81.164062 360.351562 81.164062 360.253906 81.511719 C 360.207031 81.617188 360.160156 81.71875 360.109375 81.824219 C 359.847656 82.601562 359.992188 83.179688 360.339844 83.890625 C 360.589844 84.222656 360.785156 84.339844 361.167969 84.519531 C 361.617188 84.578125 362.0625 84.574219 362.511719 84.574219 C 362.648438 84.574219 362.78125 84.578125 362.921875 84.578125 C 363.367188 84.582031 363.8125 84.582031 364.257812 84.585938 C 364.566406 84.585938 364.875 84.589844 365.1875 84.59375 C 366 84.597656 366.8125 84.601562 367.625 84.605469 C 368.457031 84.609375 369.285156 84.617188 370.117188 84.621094 C 371.742188 84.632812 373.371094 84.640625 375 84.648438 C 375 86.503906 375 88.355469 375 90.265625 C 374.359375 90.265625 374.359375 90.265625 373.703125 90.265625 C 372.289062 90.269531 370.875 90.277344 369.464844 90.28125 C 368.605469 90.289062 367.75 90.289062 366.894531 90.292969 C 366.066406 90.292969 365.242188 90.296875 364.414062 90.300781 C 364.097656 90.304688 363.78125 90.304688 363.464844 90.304688 C 363.023438 90.300781 362.582031 90.304688 362.140625 90.308594 C 361.945312 90.308594 361.945312 90.308594 361.746094 90.308594 C 361.023438 90.308594 361.023438 90.308594 360.441406 90.699219 C 360.066406 91.40625 359.914062 92.082031 359.996094 92.878906 C 360.164062 93.421875 360.324219 93.894531 360.769531 94.261719 C 361.351562 94.527344 361.882812 94.503906 362.511719 94.503906 C 362.648438 94.503906 362.78125 94.503906 362.921875 94.507812 C 363.367188 94.511719 363.8125 94.511719 364.257812 94.511719 C 364.566406 94.515625 364.875 94.515625 365.1875 94.519531 C 366 94.527344 366.8125 94.53125 367.625 94.535156 C 368.457031 94.539062 369.285156 94.542969 370.117188 94.550781 C 371.742188 94.558594 373.371094 94.570312 375 94.578125 C 375 96.386719 375 98.199219 375 100.0625 C 373.023438 100.074219 371.042969 100.085938 369.066406 100.089844 C 368.148438 100.09375 367.226562 100.097656 366.308594 100.101562 C 365.421875 100.109375 364.535156 100.109375 363.648438 100.113281 C 363.308594 100.113281 362.972656 100.117188 362.632812 100.117188 C 360.097656 100.140625 358.121094 100.078125 356.1875 98.265625 C 354.425781 96.421875 354.039062 94.097656 354.082031 91.648438 C 354.136719 90.269531 354.464844 88.976562 355.199219 87.796875 C 355.328125 87.519531 355.328125 87.519531 355.203125 87.207031 C 355.121094 87.039062 355.121094 87.039062 355.035156 86.871094 C 354.925781 86.617188 354.820312 86.367188 354.710938 86.117188 C 354.65625 85.992188 354.601562 85.867188 354.542969 85.738281 C 353.753906 83.582031 353.878906 80.933594 354.808594 78.851562 C 355.589844 77.214844 356.777344 75.96875 358.496094 75.355469 C 359.332031 75.085938 360.085938 75.042969 360.957031 75.054688 Z M 360.957031 75.054688" style="stroke:none;fill-rule:nonzero;fill:rgb(99.215686%,99.215686%,99.215686%);fill-opacity:1;"></path>
<path d="M 161.011719 75.113281 C 163.039062 75.097656 165.066406 75.085938 167.09375 75.078125 C 168.035156 75.074219 168.976562 75.070312 169.917969 75.0625 C 170.738281 75.058594 171.558594 75.050781 172.382812 75.050781 C 172.816406 75.050781 173.25 75.046875 173.683594 75.042969 C 178.042969 75 178.042969 75 179.800781 76.679688 C 179.882812 76.753906 179.960938 76.828125 180.042969 76.90625 C 181.644531 78.5625 182.085938 80.761719 182.066406 82.984375 C 182.007812 85.09375 181.347656 87.007812 179.859375 88.542969 C 178.164062 90.058594 176.359375 90.246094 174.183594 90.339844 C 174.058594 90.34375 173.933594 90.351562 173.804688 90.355469 C 173.496094 90.371094 173.191406 90.382812 172.886719 90.394531 C 172.972656 90.429688 173.054688 90.460938 173.144531 90.496094 C 173.957031 90.804688 174.765625 91.113281 175.578125 91.421875 C 175.996094 91.582031 176.414062 91.738281 176.828125 91.898438 C 177.3125 92.082031 177.792969 92.265625 178.277344 92.449219 C 178.496094 92.53125 178.496094 92.53125 178.71875 92.617188 C 179.914062 93.074219 181.09375 93.566406 182.28125 94.054688 C 182.28125 96.035156 182.28125 98.019531 182.28125 100.0625 C 181.730469 99.972656 181.363281 99.902344 180.871094 99.703125 C 180.691406 99.628906 180.691406 99.628906 180.507812 99.554688 C 180.316406 99.476562 180.316406 99.476562 180.117188 99.398438 C 179.910156 99.3125 179.910156 99.3125 179.699219 99.226562 C 179.246094 99.042969 178.789062 98.859375 178.332031 98.675781 C 177.769531 98.449219 177.207031 98.222656 176.644531 97.996094 C 176.390625 97.890625 176.140625 97.789062 175.886719 97.6875 C 174.042969 96.945312 172.191406 96.210938 170.34375 95.476562 C 169.921875 95.3125 169.5 95.144531 169.082031 94.976562 C 168.304688 94.667969 167.53125 94.363281 166.753906 94.054688 C 166.710938 96.035156 166.667969 98.019531 166.625 100.0625 C 164.773438 100.0625 162.921875 100.0625 161.011719 100.0625 C 161.003906 97.957031 161.003906 97.957031 161 97.046875 C 161 96.429688 160.996094 95.816406 160.992188 95.199219 C 160.988281 94.699219 160.988281 94.203125 160.988281 93.703125 C 160.988281 93.515625 160.988281 93.328125 160.984375 93.140625 C 160.964844 90.636719 161.164062 88.226562 162.96875 86.335938 C 164.621094 84.75 166.585938 84.609375 168.777344 84.613281 C 168.957031 84.613281 169.132812 84.609375 169.3125 84.609375 C 170.054688 84.601562 170.800781 84.601562 171.542969 84.597656 C 172.003906 84.597656 172.460938 84.59375 172.921875 84.589844 C 173.175781 84.589844 173.433594 84.589844 173.691406 84.589844 C 174.832031 84.585938 174.832031 84.585938 175.757812 83.996094 C 176.199219 83.371094 176.175781 82.675781 176.097656 81.945312 C 176.003906 81.597656 175.847656 81.398438 175.625 81.121094 C 175.625 81.035156 175.625 80.949219 175.625 80.859375 C 174.980469 80.515625 174.332031 80.558594 173.617188 80.558594 C 173.480469 80.554688 173.34375 80.554688 173.207031 80.554688 C 172.753906 80.550781 172.304688 80.546875 171.855469 80.546875 C 171.542969 80.542969 171.230469 80.539062 170.917969 80.539062 C 170.097656 80.53125 169.277344 80.527344 168.457031 80.519531 C 167.621094 80.515625 166.78125 80.507812 165.945312 80.503906 C 164.300781 80.488281 162.65625 80.480469 161.011719 80.46875 C 161.011719 78.699219 161.011719 76.933594 161.011719 75.113281 Z M 161.011719 75.113281" style="stroke:none;fill-rule:nonzero;fill:rgb(99.215686%,99.215686%,99.215686%);fill-opacity:1;"></path>
<path d="M 236.160156 75.082031 C 236.386719 75.082031 236.386719 75.082031 236.621094 75.082031 C 237.125 75.082031 237.628906 75.085938 238.128906 75.085938 C 238.480469 75.085938 238.828125 75.089844 239.179688 75.089844 C 240.003906 75.089844 240.828125 75.089844 241.652344 75.09375 C 242.589844 75.097656 243.53125 75.097656 244.46875 75.097656 C 246.398438 75.101562 248.332031 75.105469 250.261719 75.113281 C 250.261719 76.878906 250.261719 78.648438 250.261719 80.46875 C 249.632812 80.46875 249.632812 80.46875 248.992188 80.46875 C 247.609375 80.472656 246.222656 80.476562 244.839844 80.484375 C 244 80.488281 243.164062 80.492188 242.324219 80.492188 C 241.515625 80.496094 240.703125 80.5 239.894531 80.503906 C 239.585938 80.507812 239.277344 80.507812 238.96875 80.503906 C 238.535156 80.503906 238.101562 80.507812 237.671875 80.511719 C 237.542969 80.511719 237.414062 80.511719 237.28125 80.507812 C 236.699219 80.519531 236.296875 80.539062 235.832031 80.914062 C 235.214844 81.570312 235.199219 82.066406 235.214844 82.953125 C 235.273438 83.519531 235.425781 83.808594 235.777344 84.257812 C 236.230469 84.5625 236.632812 84.550781 237.167969 84.554688 C 237.253906 84.554688 237.339844 84.554688 237.429688 84.554688 C 237.617188 84.558594 237.804688 84.558594 237.992188 84.558594 C 238.289062 84.558594 238.585938 84.558594 238.882812 84.5625 C 239.730469 84.570312 240.574219 84.574219 241.421875 84.578125 C 241.941406 84.578125 242.457031 84.582031 242.976562 84.589844 C 243.171875 84.589844 243.367188 84.589844 243.566406 84.589844 C 245.84375 84.589844 247.710938 84.917969 249.421875 86.523438 C 251.21875 88.480469 251.546875 90.898438 251.457031 93.445312 C 251.332031 95.347656 250.527344 97.347656 249.085938 98.625 C 247.679688 99.710938 246.230469 100.144531 244.46875 100.121094 C 244.242188 100.121094 244.242188 100.121094 244.007812 100.121094 C 243.507812 100.121094 243.007812 100.117188 242.507812 100.113281 C 242.160156 100.113281 241.808594 100.113281 241.460938 100.113281 C 240.640625 100.109375 239.820312 100.105469 239 100.101562 C 238.0625 100.09375 237.128906 100.09375 236.191406 100.089844 C 234.269531 100.082031 232.351562 100.074219 230.429688 100.0625 C 230.429688 98.296875 230.429688 96.527344 230.429688 94.707031 C 230.84375 94.707031 231.257812 94.703125 231.683594 94.703125 C 233.054688 94.699219 234.425781 94.691406 235.796875 94.683594 C 236.628906 94.679688 237.460938 94.671875 238.289062 94.671875 C 239.09375 94.667969 239.894531 94.664062 240.695312 94.660156 C 241.003906 94.65625 241.308594 94.65625 241.613281 94.65625 C 242.042969 94.65625 242.472656 94.652344 242.898438 94.648438 C 243.027344 94.648438 243.152344 94.648438 243.285156 94.648438 C 244.019531 94.636719 244.464844 94.558594 245.042969 94.054688 C 245.496094 93.308594 245.546875 92.5625 245.433594 91.703125 C 245.238281 91.109375 245.042969 90.746094 244.519531 90.394531 C 244.140625 90.355469 244.140625 90.355469 243.703125 90.359375 C 243.53125 90.355469 243.363281 90.355469 243.191406 90.355469 C 243.097656 90.351562 243.007812 90.351562 242.914062 90.351562 C 242.628906 90.351562 242.34375 90.347656 242.058594 90.347656 C 241.453125 90.339844 240.847656 90.335938 240.238281 90.332031 C 239.539062 90.328125 238.839844 90.320312 238.140625 90.3125 C 237.863281 90.3125 237.585938 90.308594 237.308594 90.308594 C 235.179688 90.292969 233.050781 90.101562 231.425781 88.554688 C 230.550781 87.539062 229.871094 86.476562 229.515625 85.171875 C 229.484375 85.074219 229.457031 84.976562 229.425781 84.878906 C 228.847656 82.589844 229.238281 80.015625 230.414062 77.992188 C 231.375 76.605469 232.636719 75.570312 234.289062 75.167969 C 234.90625 75.058594 235.53125 75.078125 236.160156 75.082031 Z M 236.160156 75.082031" style="stroke:none;fill-rule:nonzero;fill:rgb(99.215686%,99.215686%,99.215686%);fill-opacity:1;"></path>
<path d="M 179.546875 35.644531 C 179.675781 35.644531 179.804688 35.644531 179.9375 35.644531 C 180.078125 35.644531 180.21875 35.648438 180.363281 35.648438 C 180.511719 35.648438 180.660156 35.648438 180.816406 35.648438 C 181.308594 35.648438 181.800781 35.648438 182.292969 35.648438 C 182.632812 35.648438 182.972656 35.648438 183.316406 35.648438 C 184.121094 35.648438 184.929688 35.652344 185.734375 35.652344 C 186.652344 35.652344 187.570312 35.65625 188.488281 35.65625 C 190.378906 35.65625 192.265625 35.660156 194.15625 35.664062 C 194.15625 37.429688 194.15625 39.195312 194.15625 41.019531 C 193.75 41.019531 193.34375 41.023438 192.921875 41.023438 C 191.582031 41.03125 190.238281 41.039062 188.894531 41.046875 C 188.078125 41.054688 187.265625 41.058594 186.449219 41.0625 C 185.664062 41.066406 184.878906 41.070312 184.09375 41.078125 C 183.792969 41.082031 183.492188 41.082031 183.195312 41.082031 C 182.773438 41.085938 182.355469 41.089844 181.933594 41.09375 C 181.808594 41.09375 181.6875 41.089844 181.558594 41.089844 C 180.832031 41.101562 180.316406 41.195312 179.671875 41.539062 C 179.230469 42.019531 179.113281 42.617188 179.09375 43.253906 C 179.117188 43.8125 179.222656 44.207031 179.539062 44.675781 C 180.101562 45.183594 180.59375 45.214844 181.335938 45.214844 C 181.421875 45.21875 181.511719 45.21875 181.605469 45.21875 C 181.796875 45.21875 181.988281 45.21875 182.183594 45.21875 C 182.492188 45.222656 182.796875 45.222656 183.105469 45.226562 C 183.980469 45.234375 184.855469 45.238281 185.726562 45.242188 C 186.261719 45.242188 186.796875 45.246094 187.332031 45.25 C 187.535156 45.253906 187.738281 45.253906 187.941406 45.253906 C 189.84375 45.25 191.691406 45.554688 193.132812 46.902344 C 195.117188 49.027344 195.433594 51.410156 195.351562 54.207031 C 195.234375 56.21875 194.292969 57.9375 192.851562 59.304688 C 191.414062 60.496094 189.800781 60.765625 187.992188 60.757812 C 187.84375 60.757812 187.699219 60.757812 187.546875 60.757812 C 187.0625 60.757812 186.582031 60.757812 186.097656 60.757812 C 185.761719 60.753906 185.429688 60.753906 185.09375 60.753906 C 184.300781 60.753906 183.507812 60.753906 182.71875 60.753906 C 181.816406 60.75 180.914062 60.75 180.011719 60.75 C 178.160156 60.75 176.304688 60.746094 174.453125 60.742188 C 174.453125 58.976562 174.453125 57.207031 174.453125 55.386719 C 175.050781 55.382812 175.050781 55.382812 175.660156 55.378906 C 176.980469 55.371094 178.296875 55.359375 179.617188 55.351562 C 180.417969 55.34375 181.214844 55.335938 182.015625 55.332031 C 182.789062 55.328125 183.558594 55.320312 184.332031 55.316406 C 184.625 55.3125 184.917969 55.308594 185.214844 55.308594 C 185.625 55.304688 186.039062 55.300781 186.449219 55.296875 C 186.570312 55.296875 186.695312 55.296875 186.820312 55.296875 C 187.574219 55.289062 188.226562 55.25 188.835938 54.757812 C 189.460938 53.980469 189.421875 53.074219 189.328125 52.121094 C 189.203125 51.71875 189.078125 51.542969 188.804688 51.207031 C 188.285156 50.933594 187.835938 50.914062 187.253906 50.910156 C 187.164062 50.910156 187.078125 50.910156 186.984375 50.910156 C 186.796875 50.90625 186.605469 50.90625 186.414062 50.90625 C 186.113281 50.90625 185.8125 50.902344 185.507812 50.902344 C 184.648438 50.894531 183.789062 50.890625 182.929688 50.886719 C 182.402344 50.882812 181.875 50.878906 181.347656 50.875 C 181.148438 50.875 180.949219 50.871094 180.75 50.871094 C 178.632812 50.871094 176.863281 50.535156 175.269531 49.050781 C 173.515625 47.128906 173.046875 44.878906 173.148438 42.324219 C 173.285156 40.707031 173.875 39.304688 174.84375 38.011719 C 174.902344 37.933594 174.957031 37.851562 175.015625 37.769531 C 176.070312 36.402344 177.84375 35.644531 179.546875 35.644531 Z M 179.546875 35.644531" style="stroke:none;fill-rule:nonzero;fill:rgb(99.215686%,99.215686%,99.215686%);fill-opacity:1;"></path>
<path d="M 221.019531 36.886719 C 222.460938 38.128906 222.921875 40.726562 223.503906 42.464844 C 223.601562 42.753906 223.699219 43.046875 223.800781 43.335938 C 224 43.933594 224.199219 44.527344 224.398438 45.121094 C 224.621094 45.785156 224.84375 46.449219 225.066406 47.109375 C 226.226562 50.542969 227.328125 53.992188 228.40625 57.449219 C 228.449219 57.578125 228.488281 57.707031 228.53125 57.839844 C 228.605469 58.082031 228.679688 58.324219 228.753906 58.566406 C 228.828125 58.804688 228.902344 59.039062 228.976562 59.277344 C 229.011719 59.390625 229.050781 59.507812 229.085938 59.625 C 229.117188 59.726562 229.152344 59.832031 229.183594 59.933594 C 229.253906 60.222656 229.253906 60.222656 229.253906 60.742188 C 227.230469 60.742188 225.207031 60.742188 223.121094 60.742188 C 222.738281 59.5625 222.738281 59.5625 222.347656 58.359375 C 221.3125 55.164062 220.25 51.976562 219.1875 48.792969 C 218.941406 48.054688 218.699219 47.320312 218.453125 46.585938 C 218.058594 45.40625 217.667969 44.226562 217.273438 43.050781 C 217.089844 42.503906 216.910156 41.957031 216.726562 41.410156 C 216.511719 41.367188 216.296875 41.324219 216.074219 41.277344 C 216.042969 41.40625 216.042969 41.40625 216.007812 41.535156 C 215.75 42.503906 215.449219 43.457031 215.128906 44.40625 C 215.078125 44.570312 215.023438 44.734375 214.964844 44.902344 C 214.820312 45.34375 214.671875 45.785156 214.523438 46.226562 C 214.367188 46.691406 214.214844 47.15625 214.058594 47.621094 C 213.765625 48.5 213.472656 49.378906 213.179688 50.257812 C 212.847656 51.253906 212.511719 52.253906 212.179688 53.25 C 211.613281 54.957031 211.042969 56.660156 210.472656 58.367188 C 210.425781 58.507812 210.378906 58.652344 210.332031 58.796875 C 210.269531 58.976562 210.269531 58.976562 210.207031 59.164062 C 210.03125 59.691406 209.855469 60.214844 209.679688 60.742188 C 207.65625 60.742188 205.632812 60.742188 203.550781 60.742188 C 203.722656 59.964844 203.902344 59.21875 204.140625 58.460938 C 204.171875 58.355469 204.203125 58.25 204.238281 58.140625 C 204.347656 57.785156 204.457031 57.429688 204.570312 57.078125 C 204.625 56.890625 204.625 56.890625 204.6875 56.699219 C 206.199219 51.851562 207.792969 47.03125 209.417969 42.222656 C 209.503906 41.960938 209.59375 41.703125 209.679688 41.441406 C 211.121094 37.160156 211.121094 37.160156 212.765625 36.273438 C 215.378906 35.082031 218.65625 35.152344 221.019531 36.886719 Z M 221.019531 36.886719" style="stroke:none;fill-rule:nonzero;fill:rgb(99.215686%,99.215686%,99.215686%);fill-opacity:1;"></path>
<path d="M 318.226562 36.886719 C 319.609375 38.078125 320.0625 40.523438 320.621094 42.195312 C 320.714844 42.464844 320.804688 42.734375 320.894531 43.003906 C 321.136719 43.71875 321.375 44.433594 321.617188 45.152344 C 321.761719 45.585938 321.910156 46.023438 322.054688 46.457031 C 323.347656 50.292969 324.601562 54.140625 325.800781 58.007812 C 325.855469 58.1875 325.855469 58.1875 325.914062 58.367188 C 326.007812 58.679688 326.105469 58.992188 326.199219 59.304688 C 326.242188 59.4375 326.242188 59.4375 326.28125 59.570312 C 326.410156 59.988281 326.460938 60.300781 326.460938 60.742188 C 324.480469 60.742188 322.5 60.742188 320.460938 60.742188 C 320.113281 59.878906 319.789062 59.023438 319.496094 58.140625 C 319.433594 57.957031 319.433594 57.957031 319.371094 57.769531 C 319.238281 57.367188 319.105469 56.964844 318.972656 56.558594 C 318.875 56.273438 318.78125 55.988281 318.6875 55.703125 C 318.4375 54.949219 318.1875 54.199219 317.9375 53.445312 C 317.6875 52.695312 317.4375 51.945312 317.191406 51.199219 C 316.804688 50.042969 316.421875 48.886719 316.039062 47.730469 C 315.550781 46.261719 315.0625 44.796875 314.574219 43.332031 C 314.542969 43.230469 314.507812 43.128906 314.472656 43.027344 C 314.292969 42.488281 314.113281 41.949219 313.933594 41.410156 C 313.71875 41.453125 313.503906 41.496094 313.28125 41.539062 C 312.695312 43.296875 312.113281 45.050781 311.527344 46.808594 C 311.253906 47.625 310.984375 48.441406 310.710938 49.257812 C 310.394531 50.199219 310.082031 51.144531 309.765625 52.089844 C 309.714844 52.246094 309.664062 52.398438 309.609375 52.558594 C 308.882812 54.738281 308.164062 56.925781 307.464844 59.113281 C 307.433594 59.207031 307.402344 59.300781 307.375 59.394531 C 307.296875 59.636719 307.21875 59.882812 307.140625 60.125 C 307.019531 60.480469 307.019531 60.480469 306.890625 60.742188 C 304.867188 60.742188 302.84375 60.742188 300.757812 60.742188 C 301.355469 58.339844 301.355469 58.339844 301.742188 57.160156 C 301.785156 57.027344 301.828125 56.894531 301.871094 56.753906 C 302.011719 56.324219 302.148438 55.890625 302.289062 55.460938 C 302.390625 55.15625 302.488281 54.847656 302.585938 54.542969 C 302.839844 53.757812 303.09375 52.972656 303.347656 52.1875 C 303.492188 51.75 303.632812 51.3125 303.773438 50.875 C 304.671875 48.097656 305.578125 45.324219 306.511719 42.558594 C 306.59375 42.316406 306.675781 42.070312 306.757812 41.828125 C 307.140625 40.675781 307.542969 39.53125 308.019531 38.410156 C 308.054688 38.328125 308.09375 38.242188 308.128906 38.15625 C 308.601562 37.078125 309.351562 36.542969 310.394531 36.070312 C 312.9375 35.117188 315.992188 35.246094 318.226562 36.886719 Z M 318.226562 36.886719" style="stroke:none;fill-rule:nonzero;fill:rgb(99.215686%,99.215686%,99.215686%);fill-opacity:1;"></path>
<path d="M 111.300781 76.027344 C 112.503906 76.867188 112.851562 78.125 113.320312 79.464844 C 113.378906 79.625 113.433594 79.78125 113.492188 79.945312 C 113.675781 80.46875 113.859375 80.992188 114.039062 81.511719 C 114.101562 81.6875 114.164062 81.863281 114.222656 82.039062 C 115.722656 86.34375 117.113281 90.679688 118.488281 95.027344 C 118.589844 95.339844 118.6875 95.652344 118.785156 95.964844 C 118.925781 96.402344 119.066406 96.84375 119.203125 97.285156 C 119.246094 97.414062 119.285156 97.542969 119.328125 97.675781 C 119.386719 97.863281 119.386719 97.863281 119.445312 98.050781 C 119.480469 98.15625 119.511719 98.261719 119.546875 98.371094 C 119.695312 98.925781 119.796875 99.496094 119.910156 100.0625 C 117.886719 100.0625 115.863281 100.0625 113.777344 100.0625 C 112.746094 96.964844 112.746094 96.964844 112.289062 95.601562 C 111.984375 94.6875 111.679688 93.769531 111.375 92.855469 C 111.082031 91.972656 110.785156 91.085938 110.492188 90.203125 C 110.441406 90.058594 110.394531 89.910156 110.34375 89.761719 C 109.824219 88.195312 109.304688 86.628906 108.796875 85.0625 C 108.753906 84.929688 108.710938 84.796875 108.667969 84.660156 C 108.46875 84.039062 108.269531 83.417969 108.070312 82.796875 C 108 82.578125 107.929688 82.359375 107.859375 82.140625 C 107.828125 82.042969 107.796875 81.945312 107.765625 81.84375 C 107.628906 81.425781 107.5 81.097656 107.253906 80.730469 C 107 80.757812 107 80.757812 106.734375 80.859375 C 106.5625 81.234375 106.429688 81.582031 106.308594 81.972656 C 106.269531 82.089844 106.230469 82.207031 106.1875 82.328125 C 106.058594 82.71875 105.929688 83.113281 105.804688 83.503906 C 105.714844 83.78125 105.621094 84.058594 105.53125 84.332031 C 105.289062 85.066406 105.046875 85.800781 104.808594 86.535156 C 104.570312 87.261719 104.332031 87.984375 104.09375 88.707031 C 103.351562 90.953125 102.617188 93.199219 101.890625 95.449219 C 101.847656 95.578125 101.804688 95.710938 101.761719 95.847656 C 101.558594 96.464844 101.359375 97.082031 101.160156 97.703125 C 101.089844 97.921875 101.015625 98.136719 100.945312 98.355469 C 100.914062 98.453125 100.882812 98.550781 100.851562 98.652344 C 100.695312 99.132812 100.527344 99.59375 100.339844 100.0625 C 98.316406 100.0625 96.292969 100.0625 94.207031 100.0625 C 94.804688 97.660156 94.804688 97.660156 95.183594 96.507812 C 95.222656 96.375 95.265625 96.246094 95.308594 96.109375 C 95.445312 95.683594 95.585938 95.257812 95.722656 94.828125 C 95.820312 94.527344 95.917969 94.222656 96.015625 93.917969 C 96.273438 93.121094 96.53125 92.328125 96.789062 91.53125 C 96.945312 91.054688 97.097656 90.582031 97.253906 90.105469 C 98.199219 87.1875 99.148438 84.269531 100.136719 81.363281 C 100.203125 81.15625 100.273438 80.953125 100.34375 80.75 C 101.78125 76.484375 101.78125 76.484375 103.730469 75.503906 C 106.054688 74.554688 109.191406 74.597656 111.300781 76.027344 Z M 111.300781 76.027344" style="stroke:none;fill-rule:nonzero;fill:rgb(99.215686%,99.215686%,99.215686%);fill-opacity:1;"></path>
<path d="M 306.105469 76.027344 C 306.1875 76.074219 306.265625 76.121094 306.347656 76.167969 C 306.917969 76.5625 307.175781 77.078125 307.4375 77.695312 C 307.496094 77.832031 307.496094 77.832031 307.558594 77.972656 C 308.101562 79.265625 308.53125 80.601562 308.976562 81.929688 C 309.074219 82.21875 309.171875 82.511719 309.269531 82.800781 C 309.46875 83.394531 309.667969 83.988281 309.867188 84.578125 C 310.085938 85.238281 310.308594 85.894531 310.527344 86.550781 C 311.484375 89.378906 312.40625 92.222656 313.308594 95.070312 C 313.386719 95.316406 313.46875 95.566406 313.546875 95.8125 C 313.695312 96.277344 313.839844 96.742188 313.988281 97.207031 C 314.03125 97.34375 314.074219 97.480469 314.121094 97.625 C 314.160156 97.753906 314.199219 97.882812 314.242188 98.019531 C 314.277344 98.128906 314.3125 98.242188 314.351562 98.355469 C 314.5 98.917969 314.605469 99.492188 314.71875 100.0625 C 312.695312 100.0625 310.671875 100.0625 308.585938 100.0625 C 306.769531 94.613281 304.957031 89.160156 303.140625 83.710938 C 303.066406 83.496094 303.066406 83.496094 302.996094 83.277344 C 302.886719 82.945312 302.78125 82.613281 302.679688 82.277344 C 302.652344 82.1875 302.625 82.097656 302.597656 82.003906 C 302.515625 81.75 302.441406 81.492188 302.363281 81.238281 C 302.234375 80.839844 302.234375 80.839844 301.910156 80.742188 C 301.832031 80.738281 301.753906 80.734375 301.671875 80.730469 C 301.28125 81.667969 300.941406 82.621094 300.621094 83.585938 C 300.574219 83.734375 300.523438 83.882812 300.472656 84.039062 C 300.335938 84.445312 300.203125 84.851562 300.066406 85.257812 C 299.925781 85.683594 299.78125 86.113281 299.640625 86.542969 C 299.371094 87.355469 299.101562 88.167969 298.832031 88.980469 C 298.527344 89.894531 298.222656 90.808594 297.917969 91.726562 C 297.394531 93.296875 296.875 94.867188 296.351562 96.4375 C 295.949219 97.648438 295.546875 98.855469 295.144531 100.0625 C 293.121094 100.0625 291.097656 100.0625 289.011719 100.0625 C 289.183594 99.292969 289.363281 98.554688 289.59375 97.808594 C 289.625 97.703125 289.65625 97.601562 289.691406 97.492188 C 289.800781 97.144531 289.90625 96.796875 290.015625 96.445312 C 290.054688 96.324219 290.09375 96.199219 290.132812 96.074219 C 291.714844 91.003906 293.382812 85.957031 295.089844 80.925781 C 295.136719 80.78125 295.136719 80.78125 295.1875 80.636719 C 296.585938 76.484375 296.585938 76.484375 298.539062 75.503906 C 300.875 74.550781 303.984375 74.613281 306.105469 76.027344 Z M 306.105469 76.027344" style="stroke:none;fill-rule:nonzero;fill:rgb(99.215686%,99.215686%,99.215686%);fill-opacity:1;"></path>
<path d="M 331.097656 75.082031 C 331.300781 75.082031 331.300781 75.082031 331.503906 75.082031 C 331.945312 75.082031 332.382812 75.085938 332.824219 75.085938 C 333.128906 75.085938 333.433594 75.089844 333.738281 75.089844 C 334.542969 75.089844 335.34375 75.089844 336.144531 75.09375 C 336.964844 75.097656 337.785156 75.097656 338.605469 75.101562 C 340.210938 75.101562 341.816406 75.105469 343.421875 75.113281 C 343.421875 76.878906 343.421875 78.648438 343.421875 80.46875 C 342.570312 80.472656 341.71875 80.476562 340.839844 80.480469 C 340.296875 80.480469 339.753906 80.484375 339.214844 80.488281 C 338.355469 80.496094 337.496094 80.5 336.636719 80.503906 C 335.945312 80.503906 335.25 80.511719 334.558594 80.515625 C 334.292969 80.519531 334.03125 80.519531 333.765625 80.519531 C 333.394531 80.519531 333.027344 80.523438 332.65625 80.527344 C 332.546875 80.527344 332.4375 80.527344 332.328125 80.527344 C 331.433594 80.542969 330.65625 80.789062 329.953125 81.355469 C 328.105469 83.597656 327.960938 86.292969 328.15625 89.089844 C 328.351562 90.824219 329.101562 92.910156 330.5 94.03125 C 331.230469 94.445312 331.914062 94.484375 332.730469 94.488281 C 332.84375 94.488281 332.960938 94.488281 333.082031 94.492188 C 333.460938 94.496094 333.84375 94.496094 334.222656 94.5 C 334.488281 94.503906 334.753906 94.503906 335.019531 94.507812 C 335.714844 94.515625 336.410156 94.519531 337.109375 94.523438 C 337.945312 94.53125 338.78125 94.539062 339.617188 94.546875 C 340.886719 94.558594 342.15625 94.566406 343.421875 94.578125 C 343.421875 96.386719 343.421875 98.199219 343.421875 100.0625 C 341.679688 100.070312 339.9375 100.078125 338.195312 100.082031 C 337.386719 100.085938 336.578125 100.089844 335.769531 100.09375 C 334.988281 100.097656 334.207031 100.097656 333.425781 100.101562 C 333.128906 100.101562 332.828125 100.101562 332.53125 100.105469 C 329.90625 100.121094 327.710938 99.9375 325.71875 98.015625 C 325.617188 97.917969 325.519531 97.816406 325.417969 97.710938 C 325.328125 97.621094 325.234375 97.53125 325.140625 97.4375 C 322.246094 94.402344 321.925781 90.242188 321.992188 86.273438 C 322.082031 82.890625 323.476562 79.390625 325.890625 76.992188 C 327.410156 75.671875 329.113281 75.066406 331.097656 75.082031 Z M 331.097656 75.082031" style="stroke:none;fill-rule:nonzero;fill:rgb(99.215686%,99.215686%,99.215686%);fill-opacity:1;"></path>
<path d="M 260.828125 75.113281 C 262.859375 75.101562 264.894531 75.089844 266.925781 75.085938 C 267.867188 75.082031 268.8125 75.078125 269.753906 75.074219 C 270.578125 75.066406 271.398438 75.066406 272.222656 75.0625 C 272.660156 75.0625 273.09375 75.0625 273.527344 75.058594 C 274.015625 75.054688 274.503906 75.054688 274.992188 75.054688 C 275.132812 75.050781 275.273438 75.050781 275.421875 75.046875 C 277.226562 75.058594 278.558594 75.71875 279.878906 76.914062 C 281.4375 78.535156 281.902344 80.75 281.890625 82.925781 C 281.828125 85.078125 281.09375 86.984375 279.617188 88.566406 C 277.921875 90.105469 275.960938 90.28125 273.765625 90.289062 C 273.472656 90.292969 273.179688 90.292969 272.882812 90.296875 C 272.425781 90.304688 271.96875 90.304688 271.507812 90.308594 C 271.0625 90.308594 270.617188 90.316406 270.171875 90.320312 C 269.964844 90.320312 269.964844 90.320312 269.757812 90.320312 C 268.792969 90.335938 268.128906 90.511719 267.355469 91.125 C 266.441406 92.199219 266.382812 93.421875 266.402344 94.78125 C 266.402344 95.007812 266.402344 95.007812 266.402344 95.242188 C 266.40625 95.722656 266.410156 96.203125 266.417969 96.683594 C 266.417969 97.011719 266.417969 97.339844 266.421875 97.664062 C 266.425781 98.464844 266.433594 99.265625 266.441406 100.0625 C 264.589844 100.0625 262.738281 100.0625 260.828125 100.0625 C 260.820312 97.917969 260.820312 97.917969 260.816406 96.996094 C 260.816406 96.367188 260.8125 95.742188 260.808594 95.113281 C 260.808594 94.605469 260.804688 94.101562 260.804688 93.59375 C 260.804688 93.402344 260.804688 93.210938 260.800781 93.019531 C 260.785156 90.742188 260.953125 88.585938 262.394531 86.738281 C 262.457031 86.660156 262.519531 86.578125 262.585938 86.496094 C 263.648438 85.289062 265.160156 84.835938 266.703125 84.648438 C 267.335938 84.613281 267.96875 84.609375 268.601562 84.609375 C 268.777344 84.605469 268.957031 84.605469 269.132812 84.601562 C 269.878906 84.597656 270.625 84.59375 271.371094 84.589844 C 271.832031 84.585938 272.289062 84.582031 272.75 84.578125 C 273.007812 84.574219 273.265625 84.574219 273.523438 84.574219 C 273.679688 84.574219 273.835938 84.570312 274 84.570312 C 274.136719 84.570312 274.273438 84.570312 274.417969 84.566406 C 274.972656 84.492188 275.316406 84.277344 275.671875 83.847656 C 276.023438 83.042969 276.039062 82.324219 275.742188 81.503906 C 275.421875 81.019531 275.070312 80.65625 274.496094 80.539062 C 274.136719 80.511719 273.78125 80.511719 273.421875 80.511719 C 273.214844 80.511719 273.214844 80.511719 273.007812 80.507812 C 272.558594 80.503906 272.109375 80.507812 271.660156 80.507812 C 271.347656 80.503906 271.035156 80.503906 270.726562 80.5 C 269.90625 80.496094 269.085938 80.496094 268.265625 80.492188 C 267.429688 80.492188 266.589844 80.488281 265.753906 80.484375 C 264.113281 80.472656 262.472656 80.46875 260.828125 80.46875 C 260.828125 78.699219 260.828125 76.933594 260.828125 75.113281 Z M 260.828125 75.113281" style="stroke:none;fill-rule:nonzero;fill:rgb(99.215686%,99.215686%,99.215686%);fill-opacity:1;"></path>
<path d="M 142.746094 35.664062 C 150.710938 35.664062 158.675781 35.664062 166.882812 35.664062 C 166.882812 37.429688 166.882812 39.195312 166.882812 41.019531 C 163.828125 41.019531 160.769531 41.019531 157.621094 41.019531 C 157.621094 42.429688 157.625 43.84375 157.625 45.300781 C 157.625 46.191406 157.625 47.085938 157.625 47.976562 C 157.628906 49.394531 157.628906 50.8125 157.628906 52.230469 C 157.632812 53.261719 157.632812 54.296875 157.632812 55.328125 C 157.632812 55.875 157.632812 56.421875 157.632812 56.96875 C 157.632812 57.484375 157.636719 58 157.636719 58.511719 C 157.636719 58.703125 157.636719 58.890625 157.636719 59.082031 C 157.636719 59.339844 157.636719 59.59375 157.636719 59.851562 C 157.636719 59.996094 157.636719 60.140625 157.636719 60.289062 C 157.621094 60.613281 157.621094 60.613281 157.488281 60.742188 C 155.679688 60.742188 153.871094 60.742188 152.007812 60.742188 C 152.007812 54.234375 152.007812 47.722656 152.007812 41.019531 C 148.953125 41.019531 145.894531 41.019531 142.746094 41.019531 C 142.746094 39.25 142.746094 37.484375 142.746094 35.664062 Z M 142.746094 35.664062" style="stroke:none;fill-rule:nonzero;fill:rgb(98.431373%,98.431373%,98.431373%);fill-opacity:1;"></path>
<path d="M 270.222656 35.664062 C 272.117188 35.664062 274.011719 35.664062 275.964844 35.664062 C 275.96875 36.609375 275.972656 37.554688 275.976562 38.527344 C 275.980469 39.128906 275.984375 39.734375 275.988281 40.335938 C 275.992188 41.292969 276 42.246094 276 43.199219 C 276.003906 43.972656 276.007812 44.742188 276.011719 45.511719 C 276.015625 45.804688 276.015625 46.097656 276.015625 46.390625 C 276.019531 49.171875 276.242188 51.824219 278.269531 53.933594 C 279.769531 55.296875 281.757812 55.167969 283.664062 55.179688 C 283.890625 55.183594 284.113281 55.183594 284.335938 55.1875 C 284.917969 55.195312 285.5 55.199219 286.082031 55.203125 C 286.78125 55.210938 287.480469 55.21875 288.183594 55.226562 C 289.242188 55.238281 290.300781 55.246094 291.363281 55.257812 C 291.363281 57.066406 291.363281 58.878906 291.363281 60.742188 C 288.671875 60.753906 288.671875 60.753906 287.515625 60.757812 C 286.730469 60.757812 285.945312 60.757812 285.15625 60.761719 C 284.523438 60.765625 283.886719 60.765625 283.253906 60.769531 C 283.011719 60.769531 282.773438 60.769531 282.53125 60.769531 C 279.359375 60.789062 276.230469 60.453125 273.746094 58.261719 C 273.601562 58.132812 273.601562 58.132812 273.449219 58 C 271.261719 55.957031 270.3125 52.769531 270.210938 49.824219 C 270.207031 49.449219 270.207031 49.074219 270.210938 48.699219 C 270.210938 48.554688 270.210938 48.414062 270.210938 48.269531 C 270.210938 47.804688 270.210938 47.339844 270.210938 46.875 C 270.210938 46.550781 270.210938 46.230469 270.210938 45.90625 C 270.210938 45.058594 270.214844 44.207031 270.214844 43.359375 C 270.21875 42.492188 270.21875 41.625 270.21875 40.757812 C 270.21875 39.058594 270.222656 37.359375 270.222656 35.664062 Z M 270.222656 35.664062" style="stroke:none;fill-rule:nonzero;fill:rgb(99.215686%,99.215686%,99.215686%);fill-opacity:1;"></path>
<path d="M 238.648438 35.664062 C 240.5 35.664062 242.351562 35.664062 244.257812 35.664062 C 244.265625 36.523438 244.273438 37.386719 244.277344 38.273438 C 244.28125 38.824219 244.289062 39.375 244.292969 39.925781 C 244.300781 40.796875 244.308594 41.667969 244.3125 42.539062 C 244.320312 43.242188 244.324219 43.945312 244.332031 44.648438 C 244.335938 44.914062 244.335938 45.179688 244.335938 45.445312 C 244.355469 48.503906 244.464844 51.570312 246.664062 53.941406 C 248.140625 55.308594 250.203125 55.167969 252.089844 55.179688 C 252.3125 55.183594 252.535156 55.183594 252.757812 55.1875 C 253.339844 55.195312 253.921875 55.199219 254.503906 55.203125 C 255.203125 55.210938 255.90625 55.21875 256.605469 55.226562 C 257.667969 55.238281 258.726562 55.246094 259.785156 55.257812 C 259.785156 57.066406 259.785156 58.878906 259.785156 60.742188 C 257.097656 60.753906 257.097656 60.753906 255.9375 60.757812 C 255.152344 60.757812 254.367188 60.757812 253.582031 60.761719 C 252.945312 60.765625 252.3125 60.765625 251.679688 60.769531 C 251.4375 60.769531 251.195312 60.769531 250.957031 60.769531 C 249.144531 60.78125 247.351562 60.730469 245.605469 60.195312 C 245.511719 60.167969 245.417969 60.140625 245.324219 60.113281 C 243.863281 59.640625 242.730469 58.816406 241.648438 57.738281 C 241.558594 57.652344 241.46875 57.566406 241.371094 57.476562 C 240.265625 56.34375 239.636719 54.847656 239.1875 53.347656 C 239.160156 53.265625 239.136719 53.179688 239.109375 53.097656 C 238.554688 51.097656 238.613281 49.070312 238.621094 47.015625 C 238.625 46.6875 238.625 46.359375 238.625 46.03125 C 238.625 45.257812 238.625 44.488281 238.628906 43.71875 C 238.632812 42.75 238.632812 41.785156 238.636719 40.820312 C 238.636719 39.101562 238.644531 37.382812 238.648438 35.664062 Z M 238.648438 35.664062" style="stroke:none;fill-rule:nonzero;fill:rgb(99.215686%,99.215686%,99.215686%);fill-opacity:1;"></path>
<path d="M 199.660156 75.085938 C 199.84375 75.085938 199.84375 75.085938 200.03125 75.089844 C 200.421875 75.089844 200.8125 75.09375 201.199219 75.097656 C 201.464844 75.097656 201.730469 75.097656 201.996094 75.101562 C 202.644531 75.101562 203.292969 75.109375 203.941406 75.113281 C 203.941406 76.878906 203.941406 78.648438 203.941406 80.46875 C 202.066406 80.492188 202.066406 80.492188 201.480469 80.496094 C 200.21875 80.527344 199.210938 80.726562 198.296875 81.644531 C 196.660156 83.796875 196.5 86.710938 196.804688 89.304688 C 197.074219 91.046875 197.667969 92.695312 198.980469 93.921875 C 199.652344 94.40625 200.222656 94.460938 201.035156 94.488281 C 201.1875 94.492188 201.339844 94.496094 201.496094 94.503906 C 201.691406 94.507812 201.882812 94.511719 202.082031 94.519531 C 202.695312 94.539062 203.308594 94.558594 203.941406 94.578125 C 203.941406 96.386719 203.941406 98.199219 203.941406 100.0625 C 203.078125 100.074219 202.210938 100.085938 201.324219 100.097656 C 201.054688 100.101562 200.785156 100.105469 200.507812 100.109375 C 198.101562 100.136719 195.976562 99.703125 194.152344 97.984375 C 191.507812 95.1875 190.601562 91.636719 190.597656 87.867188 C 190.597656 87.773438 190.597656 87.679688 190.597656 87.582031 C 190.601562 86.136719 190.664062 84.746094 191.023438 83.34375 C 191.042969 83.253906 191.066406 83.167969 191.089844 83.078125 C 191.785156 80.371094 193.207031 77.726562 195.589844 76.15625 C 196.933594 75.421875 198.136719 75.070312 199.660156 75.085938 Z M 199.660156 75.085938" style="stroke:none;fill-rule:nonzero;fill:rgb(99.215686%,99.215686%,99.215686%);fill-opacity:1;"></path>
<path d="M 206.027344 75.113281 C 206.796875 75.101562 207.5625 75.089844 208.332031 75.082031 C 208.59375 75.082031 208.851562 75.078125 209.113281 75.074219 C 211.578125 75.03125 213.617188 75.328125 215.507812 77.082031 C 216.875 78.414062 217.757812 79.988281 218.421875 81.773438 C 218.472656 81.90625 218.523438 82.035156 218.574219 82.171875 C 219.976562 86.269531 219.691406 91.253906 217.796875 95.148438 C 217.363281 96 216.855469 96.742188 216.207031 97.449219 C 216.113281 97.554688 216.019531 97.65625 215.925781 97.761719 C 214.714844 99.046875 213.039062 100 211.238281 100.074219 C 210.90625 100.078125 210.578125 100.078125 210.246094 100.074219 C 210.085938 100.074219 210.085938 100.074219 209.921875 100.074219 C 209.523438 100.074219 209.125 100.074219 208.726562 100.070312 C 207.835938 100.070312 206.945312 100.066406 206.027344 100.0625 C 206.027344 98.253906 206.027344 96.441406 206.027344 94.578125 C 207.839844 94.550781 207.839844 94.550781 208.402344 94.550781 C 209.558594 94.519531 210.527344 94.367188 211.382812 93.53125 C 213.113281 91.558594 213.332031 88.792969 213.226562 86.292969 C 213.109375 84.472656 212.570312 82.5625 211.246094 81.253906 C 210.214844 80.5 209.136719 80.5 207.902344 80.492188 C 207.285156 80.484375 206.664062 80.476562 206.027344 80.46875 C 206.027344 78.699219 206.027344 76.933594 206.027344 75.113281 Z M 206.027344 75.113281" style="stroke:none;fill-rule:nonzero;fill:rgb(99.215686%,99.215686%,99.215686%);fill-opacity:1;"></path>
<path d="M 81.550781 91.964844 C 81.765625 92.605469 81.710938 93.265625 81.714844 93.941406 C 81.714844 94.082031 81.71875 94.226562 81.722656 94.375 C 81.726562 95.523438 81.5625 96.460938 80.914062 97.425781 C 80.832031 97.546875 80.753906 97.667969 80.667969 97.796875 C 80.625 97.863281 80.578125 97.933594 80.53125 98.003906 C 80.289062 98.363281 80.054688 98.730469 79.820312 99.09375 C 79.441406 99.679688 79.058594 100.261719 78.679688 100.847656 C 78.601562 100.964844 78.527344 101.082031 78.445312 101.203125 C 77.960938 101.949219 77.476562 102.691406 76.992188 103.433594 C 76.660156 103.9375 76.332031 104.441406 76.003906 104.945312 C 75.578125 105.597656 75.152344 106.246094 74.730469 106.894531 C 74.558594 107.15625 74.386719 107.417969 74.21875 107.679688 C 73.976562 108.050781 73.734375 108.417969 73.492188 108.789062 C 73.417969 108.902344 73.347656 109.011719 73.273438 109.128906 C 72.898438 109.695312 72.527344 110.183594 72.023438 110.644531 C 72.023438 109.992188 72.023438 109.335938 72.023438 108.683594 C 72.027344 108.519531 72.027344 108.351562 72.027344 108.183594 C 72.074219 103.464844 72.949219 98.824219 73.722656 94.183594 C 74.683594 93.894531 75.648438 93.605469 76.609375 93.316406 C 77.058594 93.183594 77.503906 93.046875 77.953125 92.914062 C 78.464844 92.757812 78.980469 92.605469 79.492188 92.449219 C 79.652344 92.402344 79.816406 92.351562 79.980469 92.300781 C 80.203125 92.234375 80.203125 92.234375 80.429688 92.167969 C 80.5625 92.128906 80.695312 92.089844 80.828125 92.046875 C 81.160156 91.964844 81.160156 91.964844 81.550781 91.964844 Z M 81.550781 91.964844" style="stroke:none;fill-rule:nonzero;fill:rgb(99.215686%,99.215686%,99.215686%);fill-opacity:1;"></path>
<path d="M 51.148438 91.964844 C 51.984375 92.050781 52.761719 92.285156 53.5625 92.53125 C 53.707031 92.574219 53.847656 92.617188 53.996094 92.660156 C 54.449219 92.796875 54.902344 92.9375 55.355469 93.074219 C 55.664062 93.167969 55.96875 93.261719 56.277344 93.351562 C 56.835938 93.523438 57.398438 93.691406 57.957031 93.863281 C 58.070312 93.894531 58.179688 93.929688 58.296875 93.964844 C 58.523438 94.035156 58.75 94.109375 58.976562 94.183594 C 59.1875 95.425781 59.394531 96.671875 59.597656 97.914062 C 59.699219 98.515625 59.800781 99.121094 59.902344 99.722656 C 60.523438 103.359375 60.730469 106.957031 60.671875 110.644531 C 60.1875 110.203125 59.863281 109.707031 59.519531 109.15625 C 59.390625 108.957031 59.261719 108.753906 59.132812 108.554688 C 59.066406 108.449219 59 108.34375 58.929688 108.234375 C 58.558594 107.65625 58.183594 107.089844 57.808594 106.519531 C 57.691406 106.339844 57.691406 106.339844 57.570312 106.15625 C 57.328125 105.789062 57.082031 105.417969 56.839844 105.050781 C 55.824219 103.511719 54.8125 101.972656 53.808594 100.425781 C 53.445312 99.863281 53.082031 99.304688 52.714844 98.746094 C 52.644531 98.640625 52.574219 98.535156 52.503906 98.425781 C 52.367188 98.222656 52.230469 98.015625 52.09375 97.808594 C 50.882812 95.964844 50.863281 94.125 51.148438 91.964844 Z M 51.148438 91.964844" style="stroke:none;fill-rule:nonzero;fill:rgb(99.215686%,99.215686%,99.215686%);fill-opacity:1;"></path>
</g>
</svg>
